{
  "accessors": [
    {
      "bufferView": 2,
      "componentType": 5126,
      "count": 65532,
      "max": [
        23.551429748535156,
        14.617807388305664,
        35.00848388671875
      ],
      "min": [
        -34.25736999511719,
        -24.46172523498535,
        -16.211750030517578
      ],
      "type": "VEC3"
    },
    {
      "bufferView": 2,
      "byteOffset": 786384,
      "componentType": 5126,
      "count": 65532,
      "max": [
        1.0,
        1.0,
        1.0
      ],
      "min": [
        -1.0,
        -1.0,
        -1.0
      ],
      "type": "VEC3"
    },
    {
      "bufferView": 1,
      "componentType": 5126,
      "count": 65532,
      "max": [
        0.9886190295219421,
        0.9702379703521729
      ],
      "min": [
        0.0007089999853633344,
        0.00014800000644754618
      ],
      "type": "VEC2"
    },
    {
      "bufferView": 0,
      "componentType": 5125,
      "count": 288675,
      "type": "SCALAR"
    },
    {
      "bufferView": 2,
      "byteOffset": 1572768,
      "componentType": 5126,
      "count": 65532,
      "max": [
        23.22431182861328,
        18.32895851135254,
        31.63332176208496
      ],
      "min": [
        -32.49015426635742,
        -23.734233856201172,
        -17.25442886352539
      ],
      "type": "VEC3"
    },
    {
      "bufferView": 2,
      "byteOffset": 2359152,
      "componentType": 5126,
      "count": 65532,
      "max": [
        1.0,
        1.0,
        1.0
      ],
      "min": [
        -1.0,
        -1.0,
        -1.0
      ],
      "type": "VEC3"
    },
    {
      "bufferView": 1,
      "byteOffset": 524256,
      "componentType": 5126,
      "count": 65532,
      "max": [
        0.9990599751472473,
        0.9992910027503967
      ],
      "min": [
        0.0007089999853633344,
        0.20197999477386475
      ],
      "type": "VEC2"
    },
    {
      "bufferView": 0,
      "byteOffset": 1154700,
      "componentType": 5125,
      "count": 351726,
      "type": "SCALAR"
    },
    {
      "bufferView": 2,
      "byteOffset": 3145536,
      "componentType": 5126,
      "count": 65532,
      "max": [
        22.914705276489258,
        17.185094833374023,
        34.36619186401367
      ],
      "min": [
        -33.612361907958984,
        -23.55325698852539,
        -15.971634864807129
      ],
      "type": "VEC3"
    },
    {
      "bufferView": 2,
      "byteOffset": 3931920,
      "componentType": 5126,
      "count": 65532,
      "max": [
        1.0,
        1.0,
        1.0
      ],
      "min": [
        -1.0,
        -1.0,
        -1.0
      ],
      "type": "VEC3"
    },
    {
      "bufferView": 1,
      "byteOffset": 1048512,
      "componentType": 5126,
      "count": 65532,
      "max": [
        0.9989380240440369,
        0.9787409901618958
      ],
      "min": [
        0.009212000295519829,
        0.00015100000018719584
      ],
      "type": "VEC2"
    },
    {
      "bufferView": 0,
      "byteOffset": 2561604,
      "componentType": 5125,
      "count": 328518,
      "type": "SCALAR"
    },
    {
      "bufferView": 2,
      "byteOffset": 4718304,
      "componentType": 5126,
      "count": 5247,
      "max": [
        20.729711532592773,
        15.219253540039063,
        32.83332061767578
      ],
      "min": [
        -29.928565979003906,
        -24.46172523498535,
        -11.88520336151123
      ],
      "type": "VEC3"
    },
    {
      "bufferView": 2,
      "byteOffset": 4781268,
      "componentType": 5126,
      "count": 5247,
      "max": [
        1.0,
        0.9999984502792358,
        0.9999909400939941
      ],
      "min": [
        -1.0,
        -1.0,
        -1.0
      ],
      "type": "VEC3"
    },
    {
      "bufferView": 1,
      "byteOffset": 1572768,
      "componentType": 5126,
      "count": 5247,
      "max": [
        0.9961730241775513,
        0.9284300208091736
      ],
      "min": [
        0.01488099992275238,
        0.0014270000392571092
      ],
      "type": "VEC2"
    },
    {
      "bufferView": 0,
      "byteOffset": 3875676,
      "componentType": 5125,
      "count": 24849,
      "type": "SCALAR"
    }
  ],
  "asset": {
    "extras": {
      "author": "Vincent Lagardère (https://sketchfab.com/v.lagardere)",
      "license": "CC-BY-NC-4.0 (http://creativecommons.org/licenses/by-nc/4.0/)",
      "source": "https://sketchfab.com/3d-models/clavulina-cristata-real-fungi-3d-scan-d1c6e074bb32453a9bc1e63ce3ccd796",
      "title": "Clavulina cristata - Real fungi 3D scan"
    },
    "generator": "Sketchfab-12.67.0",
    "version": "2.0"
  },
  "bufferViews": [
    {
      "buffer": 0,
      "byteLength": 3975072,
      "name": "floatBufferViews",
      "target": 34963
    },
    {
      "buffer": 0,
      "byteLength": 1614744,
      "byteOffset": 3975072,
      "byteStride": 8,
      "name": "floatBufferViews",
      "target": 34962
    },
    {
      "buffer": 0,
      "byteLength": 4844232,
      "byteOffset": 5589816,
      "byteStride": 12,
      "name": "floatBufferViews",
      "target": 34962
    }
  ],
  "buffers": [
    {
      "byteLength": 10434048,
      "uri": "scene.bin"
    }
  ],
  "images": [
    {
      "uri": "textures/material_0_baseColor.jpeg"
    }
  ],
  "materials": [
    {
      "doubleSided": true,
      "name": "material_0",
      "pbrMetallicRoughness": {
        "baseColorTexture": {
          "index": 0
        },
        "metallicFactor": 0.0,
        "roughnessFactor": 0.837117521710003
      }
    }
  ],
  "meshes": [
    {
      "name": "Object_0",
      "primitives": [
        {
          "attributes": {
            "NORMAL": 1,
            "POSITION": 0,
            "TEXCOORD_0": 2
          },
          "indices": 3,
          "material": 0,
          "mode": 4
        }
      ]
    },
    {
      "name": "Object_1",
      "primitives": [
        {
          "attributes": {
            "NORMAL": 5,
            "POSITION": 4,
            "TEXCOORD_0": 6
          },
          "indices": 7,
          "material": 0,
          "mode": 4
        }
      ]
    },
    {
      "name": "Object_2",
      "primitives": [
        {
          "attributes": {
            "NORMAL": 9,
            "POSITION": 8,
            "TEXCOORD_0": 10
          },
          "indices": 11,
          "material": 0,
          "mode": 4
        }
      ]
    },
    {
      "name": "Object_3",
      "primitives": [
        {
          "attributes": {
            "NORMAL": 13,
            "POSITION": 12,
            "TEXCOORD_0": 14
          },
          "indices": 15,
          "material": 0,
          "mode": 4
        }
      ]
    }
  ],
  "nodes": [
    {
      "children": [
        1
      ],
      "matrix": [
        0.7881331443786621,
        -0.27439674735069286,
        0.5509560108184813,
        0.0,
        0.3730579912662506,
        -0.49901738762855513,
        -0.7821824550628663,
        0.0,
        0.4895649552345276,
        0.8220024704933168,
        -0.29092624783515914,
        0.0,
        -4.336076736450195,
        -1.418900012969972,
        6.199708461761475,
        1.0
      ],
      "name": "Sketchfab_model"
    },
    {
      "children": [
        2,
        3,
        4,
        5
      ],
      "name": "ramaria cristata.obj.cleaner.materialmerger.gles"
    },
    {
      "mesh": 0,
      "name": "Object_2"
    },
    {
      "mesh": 1,
      "name": "Object_3"
    },
    {
      "mesh": 2,
      "name": "Object_4"
    },
    {
      "mesh": 3,
      "name": "Object_5"
    }
  ],
  "samplers": [
    {
      "magFilter": 9729,
      "minFilter": 9987,
      "wrapS": 10497,
      "wrapT": 10497
    }
  ],
  "scene": 0,
  "scenes": [
    {
      "name": "Sketchfab_Scene",
      "nodes": [
        0
      ]
    }
  ],
  "textures": [
    {
      "sampler": 0,
      "source": 0
    }
  ]
}
