{
  "accessors": [
    {
      "bufferView": 2,
      "componentType": 5126,
      "count": 65532,
      "max": [
        46.99297332763672,
        25.491735458374023,
        55.158958435058594
      ],
      "min": [
        -52.807071685791016,
        -30.613420486450195,
        -53.18850326538086
      ],
      "type": "VEC3"
    },
    {
      "bufferView": 2,
      "byteOffset": 786384,
      "componentType": 5126,
      "count": 65532,
      "max": [
        1.0,
        1.0,
        1.0
      ],
      "min": [
        -0.9999999403953552,
        -1.0,
        -1.0
      ],
      "type": "VEC3"
    },
    {
      "bufferView": 3,
      "componentType": 5126,
      "count": 65532,
      "max": [
        0.999966561794281,
        0.9999814629554749,
        0.9997521638870239,
        1.0
      ],
      "min": [
        -0.9985971450805664,
        -0.9999003410339355,
        -0.9999964833259583,
        1.0
      ],
      "type": "VEC4"
    },
    {
      "bufferView": 1,
      "componentType": 5126,
      "count": 65532,
      "max": [
        0.9940289855003357,
        0.9992190003395081
      ],
      "min": [
        0.0007810000097379088,
        0.00120599998626858
      ],
      "type": "VEC2"
    },
    {
      "bufferView": 0,
      "componentType": 5125,
      "count": 330756,
      "type": "SCALAR"
    },
    {
      "bufferView": 2,
      "byteOffset": 1572768,
      "componentType": 5126,
      "count": 65532,
      "max": [
        46.99297332763672,
        25.386579513549805,
        39.52802658081055
      ],
      "min": [
        -59.150901794433594,
        -28.75143814086914,
        -53.03583908081055
      ],
      "type": "VEC3"
    },
    {
      "bufferView": 2,
      "byteOffset": 2359152,
      "componentType": 5126,
      "count": 65532,
      "max": [
        1.0,
        0.9999245405197144,
        1.0
      ],
      "min": [
        -1.0,
        -1.0,
        -0.9999999403953552
      ],
      "type": "VEC3"
    },
    {
      "bufferView": 3,
      "byteOffset": 1048512,
      "componentType": 5126,
      "count": 65532,
      "max": [
        0.9998903870582581,
        0.9998999834060669,
        0.9986374974250793,
        1.0
      ],
      "min": [
        -0.9973070025444031,
        -0.9999966025352478,
        -0.9999145269393921,
        -1.0
      ],
      "type": "VEC4"
    },
    {
      "bufferView": 1,
      "byteOffset": 524256,
      "componentType": 5126,
      "count": 65532,
      "max": [
        0.7741479873657227,
        0.9992190003395081
      ],
      "min": [
        0.061632998287677765,
        0.19892999529838562
      ],
      "type": "VEC2"
    },
    {
      "bufferView": 0,
      "byteOffset": 1323024,
      "componentType": 5125,
      "count": 328020,
      "type": "SCALAR"
    },
    {
      "bufferView": 2,
      "byteOffset": 3145536,
      "componentType": 5126,
      "count": 65532,
      "max": [
        46.89545440673828,
        27.186891555786133,
        54.92850875854492
      ],
      "min": [
        -59.11093521118164,
        -36.01353454589844,
        -53.13451385498047
      ],
      "type": "VEC3"
    },
    {
      "bufferView": 2,
      "byteOffset": 3931920,
      "componentType": 5126,
      "count": 65532,
      "max": [
        1.0,
        1.0,
        1.0
      ],
      "min": [
        -0.9999999403953552,
        -1.0,
        -0.9999984502792358
      ],
      "type": "VEC3"
    },
    {
      "bufferView": 3,
      "byteOffset": 2097024,
      "componentType": 5126,
      "count": 65532,
      "max": [
        0.9998936653137207,
        0.9987931847572327,
        0.787519633769989,
        1.0
      ],
      "min": [
        -0.94256591796875,
        -0.9997758269309998,
        -0.9992179274559021,
        -1.0
      ],
      "type": "VEC4"
    },
    {
      "bufferView": 1,
      "byteOffset": 1048512,
      "componentType": 5126,
      "count": 65532,
      "max": [
        0.9468749761581421,
        0.9992190003395081
      ],
      "min": [
        0.0007810000097379088,
        0.1948689967393875
      ],
      "type": "VEC2"
    },
    {
      "bufferView": 0,
      "byteOffset": 2635104,
      "componentType": 5125,
      "count": 361422,
      "type": "SCALAR"
    },
    {
      "bufferView": 2,
      "byteOffset": 4718304,
      "componentType": 5126,
      "count": 65532,
      "max": [
        30.033935546875,
        4.307631015777588,
        54.01767349243164
      ],
      "min": [
        -59.150901794433594,
        -35.77644348144531,
        -52.71821212768555
      ],
      "type": "VEC3"
    },
    {
      "bufferView": 2,
      "byteOffset": 5504688,
      "componentType": 5126,
      "count": 65532,
      "max": [
        1.0,
        0.9993441104888916,
        1.0
      ],
      "min": [
        -1.0,
        -1.0,
        -1.0
      ],
      "type": "VEC3"
    },
    {
      "bufferView": 3,
      "byteOffset": 3145536,
      "componentType": 5126,
      "count": 65532,
      "max": [
        1.0,
        0.999986469745636,
        0.9999993443489075,
        1.0
      ],
      "min": [
        -0.9999696016311646,
        -0.9999859929084778,
        -0.9998652338981628,
        -1.0
      ],
      "type": "VEC4"
    },
    {
      "bufferView": 1,
      "byteOffset": 1572768,
      "componentType": 5126,
      "count": 65532,
      "max": [
        0.9573339819908142,
        0.9921749830245972
      ],
      "min": [
        0.3603000044822693,
        0.2508629858493805
      ],
      "type": "VEC2"
    },
    {
      "bufferView": 0,
      "byteOffset": 4080792,
      "componentType": 5125,
      "count": 331242,
      "type": "SCALAR"
    },
    {
      "bufferView": 2,
      "byteOffset": 6291072,
      "componentType": 5126,
      "count": 65532,
      "max": [
        45.23393630981445,
        4.186580181121826,
        55.28178787231445
      ],
      "min": [
        -19.166065216064453,
        -29.01342010498047,
        -53.02479553222656
      ],
      "type": "VEC3"
    },
    {
      "bufferView": 2,
      "byteOffset": 7077456,
      "componentType": 5126,
      "count": 65532,
      "max": [
        1.0,
        1.0,
        1.0
      ],
      "min": [
        -1.0,
        -1.0,
        -0.9997684955596924
      ],
      "type": "VEC3"
    },
    {
      "bufferView": 3,
      "byteOffset": 4194048,
      "componentType": 5126,
      "count": 65532,
      "max": [
        0.9998754858970642,
        0.9999445676803589,
        0.9999980926513672,
        1.0
      ],
      "min": [
        -0.9994485378265381,
        -0.9999768137931824,
        -0.9999625086784363,
        1.0
      ],
      "type": "VEC4"
    },
    {
      "bufferView": 1,
      "byteOffset": 2097024,
      "componentType": 5126,
      "count": 65532,
      "max": [
        0.8392220139503479,
        0.45781201124191284
      ],
      "min": [
        0.13984400033950806,
        0.020219000056385994
      ],
      "type": "VEC2"
    },
    {
      "bufferView": 0,
      "byteOffset": 5405760,
      "componentType": 5125,
      "count": 331269,
      "type": "SCALAR"
    },
    {
      "bufferView": 2,
      "byteOffset": 7863840,
      "componentType": 5126,
      "count": 8464,
      "max": [
        23.268953323364258,
        0.9865800142288208,
        56.22303009033203
      ],
      "min": [
        -48.76606369018555,
        -31.413419723510742,
        -52.71821212768555
      ],
      "type": "VEC3"
    },
    {
      "bufferView": 2,
      "byteOffset": 7965408,
      "componentType": 5126,
      "count": 8464,
      "max": [
        1.0,
        0.9994590282440186,
        1.0
      ],
      "min": [
        -0.9998481869697571,
        -1.0,
        -0.9826743602752686
      ],
      "type": "VEC3"
    },
    {
      "bufferView": 3,
      "byteOffset": 5242560,
      "componentType": 5126,
      "count": 8464,
      "max": [
        0.9999594688415527,
        0.9947339296340942,
        0.9931503534317017,
        1.0
      ],
      "min": [
        -0.9995430111885071,
        -0.9999945759773254,
        -0.9997765421867371,
        1.0
      ],
      "type": "VEC4"
    },
    {
      "bufferView": 1,
      "byteOffset": 2621280,
      "componentType": 5126,
      "count": 8464,
      "max": [
        0.7416390180587769,
        0.5539060235023499
      ],
      "min": [
        0.0078119998797774315,
        0.00912499986588955
      ],
      "type": "VEC2"
    },
    {
      "bufferView": 0,
      "byteOffset": 6730836,
      "componentType": 5125,
      "count": 38421,
      "type": "SCALAR"
    }
  ],
  "asset": {
    "extras": {
      "author": "Vincent Lagardère (https://sketchfab.com/v.lagardere)",
      "license": "CC-BY-NC-4.0 (http://creativecommons.org/licenses/by-nc/4.0/)",
      "source": "https://sketchfab.com/3d-models/russula-nigricans-real-fungi-3d-scan-bba9c04814a848458c027b8b24bf827a",
      "title": "Russula nigricans - Real fungi 3D scan"
    },
    "generator": "Sketchfab-12.67.0",
    "version": "2.0"
  },
  "bufferViews": [
    {
      "buffer": 0,
      "byteLength": 6884520,
      "name": "floatBufferViews",
      "target": 34963
    },
    {
      "buffer": 0,
      "byteLength": 2688992,
      "byteOffset": 6884520,
      "byteStride": 8,
      "name": "floatBufferViews",
      "target": 34962
    },
    {
      "buffer": 0,
      "byteLength": 8066976,
      "byteOffset": 9573512,
      "byteStride": 12,
      "name": "floatBufferViews",
      "target": 34962
    },
    {
      "buffer": 0,
      "byteLength": 5377984,
      "byteOffset": 17640488,
      "byteStride": 16,
      "name": "floatBufferViews",
      "target": 34962
    }
  ],
  "buffers": [
    {
      "byteLength": 23018472,
      "uri": "scene.bin"
    }
  ],
  "images": [
    {
      "uri": "textures/material_0_baseColor.jpeg"
    },
    {
      "uri": "textures/material_0_metallicRoughness.png"
    },
    {
      "uri": "textures/material_0_normal.png"
    }
  ],
  "materials": [
    {
      "doubleSided": true,
      "name": "material_0",
      "normalTexture": {
        "index": 2,
        "scale": 0.9187670943058942
      },
      "pbrMetallicRoughness": {
        "baseColorTexture": {
          "index": 0
        },
        "metallicFactor": 0.0,
        "metallicRoughnessTexture": {
          "index": 1
        },
        "roughnessFactor": 0.9187670943058942
      }
    }
  ],
  "meshes": [
    {
      "name": "Object_0",
      "primitives": [
        {
          "attributes": {
            "NORMAL": 1,
            "POSITION": 0,
            "TANGENT": 2,
            "TEXCOORD_0": 3
          },
          "indices": 4,
          "material": 0,
          "mode": 4
        }
      ]
    },
    {
      "name": "Object_1",
      "primitives": [
        {
          "attributes": {
            "NORMAL": 6,
            "POSITION": 5,
            "TANGENT": 7,
            "TEXCOORD_0": 8
          },
          "indices": 9,
          "material": 0,
          "mode": 4
        }
      ]
    },
    {
      "name": "Object_2",
      "primitives": [
        {
          "attributes": {
            "NORMAL": 11,
            "POSITION": 10,
            "TANGENT": 12,
            "TEXCOORD_0": 13
          },
          "indices": 14,
          "material": 0,
          "mode": 4
        }
      ]
    },
    {
      "name": "Object_3",
      "primitives": [
        {
          "attributes": {
            "NORMAL": 16,
            "POSITION": 15,
            "TANGENT": 17,
            "TEXCOORD_0": 18
          },
          "indices": 19,
          "material": 0,
          "mode": 4
        }
      ]
    },
    {
      "name": "Object_4",
      "primitives": [
        {
          "attributes": {
            "NORMAL": 21,
            "POSITION": 20,
            "TANGENT": 22,
            "TEXCOORD_0": 23
          },
          "indices": 24,
          "material": 0,
          "mode": 4
        }
      ]
    },
    {
      "name": "Object_5",
      "primitives": [
        {
          "attributes": {
            "NORMAL": 26,
            "POSITION": 25,
            "TANGENT": 27,
            "TEXCOORD_0": 28
          },
          "indices": 29,
          "material": 0,
          "mode": 4
        }
      ]
    }
  ],
  "nodes": [
    {
      "children": [
        1
      ],
      "matrix": [
        0.09629855304956436,
        0.07195787131786369,
        -0.9927480220794678,
        0.0,
        0.3817478120326996,
        0.9184417128562927,
        0.10360219329595587,
        0.0,
        0.9192361831665039,
        -0.38895612955093384,
        0.06097484752535812,
        0.0,
        -5.203347682952881,
        6.598182201385498,
        -1.2566758394241317,
        1.0
      ],
      "name": "Sketchfab_model"
    },
    {
      "children": [
        2,
        3,
        4,
        5,
        6,
        7
      ],
      "name": "russulaN.obj.cleaner.materialmerger.gles"
    },
    {
      "mesh": 0,
      "name": "Object_2"
    },
    {
      "mesh": 1,
      "name": "Object_3"
    },
    {
      "mesh": 2,
      "name": "Object_4"
    },
    {
      "mesh": 3,
      "name": "Object_5"
    },
    {
      "mesh": 4,
      "name": "Object_6"
    },
    {
      "mesh": 5,
      "name": "Object_7"
    }
  ],
  "samplers": [
    {
      "magFilter": 9729,
      "minFilter": 9987,
      "wrapS": 10497,
      "wrapT": 10497
    }
  ],
  "scene": 0,
  "scenes": [
    {
      "name": "Sketchfab_Scene",
      "nodes": [
        0
      ]
    }
  ],
  "textures": [
    {
      "sampler": 0,
      "source": 0
    },
    {
      "sampler": 0,
      "source": 1
    },
    {
      "sampler": 0,
      "source": 2
    }
  ]
}
