{
  "accessors": [
    {
      "bufferView": 2,
      "componentType": 5126,
      "count": 65532,
      "max": [
        18.227678298950195,
        31.855031967163086,
        21.885482788085938
      ],
      "min": [
        -15.75020694732666,
        -19.605575561523438,
        -25.703458786010742
      ],
      "type": "VEC3"
    },
    {
      "bufferView": 2,
      "byteOffset": 786384,
      "componentType": 5126,
      "count": 65532,
      "max": [
        1.0,
        0.9999080300331116,
        0.999713122844696
      ],
      "min": [
        -0.9999904632568359,
        -0.9999999403953552,
        -1.0
      ],
      "type": "VEC3"
    },
    {
      "bufferView": 3,
      "componentType": 5126,
      "count": 65532,
      "max": [
        0.9999986886978149,
        0.9376606941223145,
        0.9999778270721436,
        1.0
      ],
      "min": [
        -0.9970764517784119,
        -0.9991124868392944,
        -0.9974138140678406,
        1.0
      ],
      "type": "VEC4"
    },
    {
      "bufferView": 1,
      "componentType": 5126,
      "count": 65532,
      "max": [
        0.9933980107307434,
        0.9992190003395081
      ],
      "min": [
        0.036719001829624176,
        0.000977999996393919
      ],
      "type": "VEC2"
    },
    {
      "bufferView": 0,
      "componentType": 5125,
      "count": 377340,
      "type": "SCALAR"
    },
    {
      "bufferView": 2,
      "byteOffset": 1572768,
      "componentType": 5126,
      "count": 65532,
      "max": [
        16.426265716552734,
        31.93423843383789,
        23.013301849365234
      ],
      "min": [
        -18.60618019104004,
        -21.761489868164063,
        -25.514760971069336
      ],
      "type": "VEC3"
    },
    {
      "bufferView": 2,
      "byteOffset": 2359152,
      "componentType": 5126,
      "count": 65532,
      "max": [
        1.0,
        1.0,
        1.0
      ],
      "min": [
        -1.0,
        -1.0,
        -1.0
      ],
      "type": "VEC3"
    },
    {
      "bufferView": 3,
      "byteOffset": 1048512,
      "componentType": 5126,
      "count": 65532,
      "max": [
        0.9994083642959595,
        0.9999734163284302,
        1.0,
        1.0
      ],
      "min": [
        -1.0,
        -1.0,
        -0.9999637603759766,
        -1.0
      ],
      "type": "VEC4"
    },
    {
      "bufferView": 1,
      "byteOffset": 524256,
      "componentType": 5126,
      "count": 65532,
      "max": [
        0.9667440056800842,
        0.9799010157585144
      ],
      "min": [
        0.0007810000097379088,
        0.006891000084578991
      ],
      "type": "VEC2"
    },
    {
      "bufferView": 0,
      "byteOffset": 1509360,
      "componentType": 5125,
      "count": 323802,
      "type": "SCALAR"
    },
    {
      "bufferView": 2,
      "byteOffset": 3145536,
      "componentType": 5126,
      "count": 65532,
      "max": [
        16.049793243408203,
        31.71295166015625,
        24.19825553894043
      ],
      "min": [
        -18.955738067626953,
        -21.95421600341797,
        -20.314517974853516
      ],
      "type": "VEC3"
    },
    {
      "bufferView": 2,
      "byteOffset": 3931920,
      "componentType": 5126,
      "count": 65532,
      "max": [
        1.0,
        1.0,
        1.0
      ],
      "min": [
        -1.0,
        -1.0,
        -0.9992792010307312
      ],
      "type": "VEC3"
    },
    {
      "bufferView": 3,
      "byteOffset": 2097024,
      "componentType": 5126,
      "count": 65532,
      "max": [
        0.9999999403953552,
        0.9999622106552124,
        0.999999463558197,
        1.0
      ],
      "min": [
        -0.9935290813446045,
        -0.9997565746307373,
        -0.971173107624054,
        -1.0
      ],
      "type": "VEC4"
    },
    {
      "bufferView": 1,
      "byteOffset": 1048512,
      "componentType": 5126,
      "count": 65532,
      "max": [
        0.6412780284881592,
        0.9992190003395081
      ],
      "min": [
        0.005894999951124191,
        0.30162501335144043
      ],
      "type": "VEC2"
    },
    {
      "bufferView": 0,
      "byteOffset": 2804568,
      "componentType": 5125,
      "count": 334203,
      "type": "SCALAR"
    },
    {
      "bufferView": 2,
      "byteOffset": 4718304,
      "componentType": 5126,
      "count": 29229,
      "max": [
        14.049793243408203,
        31.594425201416016,
        21.28548240661621
      ],
      "min": [
        -16.750207901000977,
        -12.933964729309082,
        -19.51451873779297
      ],
      "type": "VEC3"
    },
    {
      "bufferView": 2,
      "byteOffset": 5069052,
      "componentType": 5126,
      "count": 29229,
      "max": [
        0.9999223351478577,
        1.0,
        0.9999635815620422
      ],
      "min": [
        -1.0,
        -1.0,
        -0.9999964237213135
      ],
      "type": "VEC3"
    },
    {
      "bufferView": 3,
      "byteOffset": 3145536,
      "componentType": 5126,
      "count": 29229,
      "max": [
        1.0,
        0.99985671043396,
        0.9968667030334473,
        1.0
      ],
      "min": [
        -0.9015309810638428,
        -0.9997565746307373,
        -0.9998387098312378,
        1.0
      ],
      "type": "VEC4"
    },
    {
      "bufferView": 1,
      "byteOffset": 1572768,
      "componentType": 5126,
      "count": 29229,
      "max": [
        0.5970069766044617,
        0.5067629814147949
      ],
      "min": [
        0.08474700152873993,
        0.007226999849081039
      ],
      "type": "VEC2"
    },
    {
      "bufferView": 0,
      "byteOffset": 4141380,
      "componentType": 5125,
      "count": 137127,
      "type": "SCALAR"
    }
  ],
  "asset": {
    "extras": {
      "author": "Vincent Lagardère (https://sketchfab.com/v.lagardere)",
      "license": "CC-BY-NC-ND-4.0 (http://creativecommons.org/licenses/by-nc-nd/4.0/)",
      "source": "https://sketchfab.com/3d-models/lycoperdon-perlatum-real-fungus-3d-scan-f9bc09557dda45bca024535b93a3c833",
      "title": "Lycoperdon perlatum - Real fungus 3D scan"
    },
    "generator": "Sketchfab-12.67.0",
    "version": "2.0"
  },
  "bufferViews": [
    {
      "buffer": 0,
      "byteLength": 4689888,
      "name": "floatBufferViews",
      "target": 34963
    },
    {
      "buffer": 0,
      "byteLength": 1806600,
      "byteOffset": 4689888,
      "byteStride": 8,
      "name": "floatBufferViews",
      "target": 34962
    },
    {
      "buffer": 0,
      "byteLength": 5419800,
      "byteOffset": 6496488,
      "byteStride": 12,
      "name": "floatBufferViews",
      "target": 34962
    },
    {
      "buffer": 0,
      "byteLength": 3613200,
      "byteOffset": 11916288,
      "byteStride": 16,
      "name": "floatBufferViews",
      "target": 34962
    }
  ],
  "buffers": [
    {
      "byteLength": 15529488,
      "uri": "scene.bin"
    }
  ],
  "extensionsRequired": [
    "KHR_materials_pbrSpecularGlossiness"
  ],
  "extensionsUsed": [
    "KHR_materials_pbrSpecularGlossiness"
  ],
  "images": [
    {
      "uri": "textures/material_0_diffuse.jpeg"
    },
    {
      "uri": "textures/material_0_normal.png"
    }
  ],
  "materials": [
    {
      "doubleSided": true,
      "extensions": {
        "KHR_materials_pbrSpecularGlossiness": {
          "diffuseFactor": [
            1.0,
            1.0,
            1.0,
            1.0
          ],
          "diffuseTexture": {
            "index": 0
          },
          "glossinessFactor": 0.761748685467642,
          "specularFactor": [
            0.0,
            0.0,
            0.0
          ]
        }
      },
      "name": "material_0",
      "normalTexture": {
        "index": 1
      }
    }
  ],
  "meshes": [
    {
      "name": "Object_0",
      "primitives": [
        {
          "attributes": {
            "NORMAL": 1,
            "POSITION": 0,
            "TANGENT": 2,
            "TEXCOORD_0": 3
          },
          "indices": 4,
          "material": 0,
          "mode": 4
        }
      ]
    },
    {
      "name": "Object_1",
      "primitives": [
        {
          "attributes": {
            "NORMAL": 6,
            "POSITION": 5,
            "TANGENT": 7,
            "TEXCOORD_0": 8
          },
          "indices": 9,
          "material": 0,
          "mode": 4
        }
      ]
    },
    {
      "name": "Object_2",
      "primitives": [
        {
          "attributes": {
            "NORMAL": 11,
            "POSITION": 10,
            "TANGENT": 12,
            "TEXCOORD_0": 13
          },
          "indices": 14,
          "material": 0,
          "mode": 4
        }
      ]
    },
    {
      "name": "Object_3",
      "primitives": [
        {
          "attributes": {
            "NORMAL": 16,
            "POSITION": 15,
            "TANGENT": 17,
            "TEXCOORD_0": 18
          },
          "indices": 19,
          "material": 0,
          "mode": 4
        }
      ]
    }
  ],
  "nodes": [
    {
      "children": [
        1
      ],
      "matrix": [
        0.9731403589248657,
        -0.224887415766716,
        -0.04922841861844068,
        0.0,
        -0.21130599081516266,
        -0.7876920104026793,
        -0.578697741031647,
        0.0,
        0.09136500209569931,
        0.5735563635826113,
        -0.8140549659729003,
        0.0,
        1.1133977174758911,
        3.5277283191680913,
        -2.7329020500183097,
        1.0
      ],
      "name": "Sketchfab_model"
    },
    {
      "children": [
        2,
        3,
        4,
        5
      ],
      "name": "lycoperdon.obj.cleaner.materialmerger.gles"
    },
    {
      "mesh": 0,
      "name": "Object_2"
    },
    {
      "mesh": 1,
      "name": "Object_3"
    },
    {
      "mesh": 2,
      "name": "Object_4"
    },
    {
      "mesh": 3,
      "name": "Object_5"
    }
  ],
  "samplers": [
    {
      "magFilter": 9729,
      "minFilter": 9987,
      "wrapS": 10497,
      "wrapT": 10497
    }
  ],
  "scene": 0,
  "scenes": [
    {
      "name": "Sketchfab_Scene",
      "nodes": [
        0
      ]
    }
  ],
  "textures": [
    {
      "sampler": 0,
      "source": 0
    },
    {
      "sampler": 0,
      "source": 1
    }
  ]
}
