{
  "accessors": [
    {
      "bufferView": 2,
      "componentType": 5126,
      "count": 65532,
      "max": [
        45.90727996826172,
        -33.356163024902344,
        15.707405090332031
      ],
      "min": [
        -13.464599609375,
        -99.70419311523438,
        -60.83319854736328
      ],
      "type": "VEC3"
    },
    {
      "bufferView": 2,
      "byteOffset": 786384,
      "componentType": 5126,
      "count": 65532,
      "max": [
        1.0,
        1.0,
        1.0
      ],
      "min": [
        -1.0,
        -1.0,
        -1.0
      ],
      "type": "VEC3"
    },
    {
      "bufferView": 3,
      "componentType": 5126,
      "count": 65532,
      "max": [
        0.9999858736991882,
        0.9999772310256958,
        0.9999964237213135,
        1.0
      ],
      "min": [
        -0.9999858140945435,
        -0.9999995231628418,
        -0.9999984502792358,
        -1.0
      ],
      "type": "VEC4"
    },
    {
      "bufferView": 1,
      "componentType": 5126,
      "count": 65532,
      "max": [
        0.9981769919395447,
        0.9992190003395081
      ],
      "min": [
        0.0007810000097379088,
        0.0007880000048317015
      ],
      "type": "VEC2"
    },
    {
      "bufferView": 0,
      "componentType": 5125,
      "count": 320037,
      "type": "SCALAR"
    },
    {
      "bufferView": 2,
      "byteOffset": 1572768,
      "componentType": 5126,
      "count": 65532,
      "max": [
        45.72970962524414,
        -32.40825653076172,
        9.323277473449707
      ],
      "min": [
        -13.437918663024902,
        -101.03839111328125,
        -60.83319854736328
      ],
      "type": "VEC3"
    },
    {
      "bufferView": 2,
      "byteOffset": 2359152,
      "componentType": 5126,
      "count": 65532,
      "max": [
        1.0,
        1.0,
        1.0
      ],
      "min": [
        -1.0,
        -1.0,
        -1.0
      ],
      "type": "VEC3"
    },
    {
      "bufferView": 3,
      "byteOffset": 1048512,
      "componentType": 5126,
      "count": 65532,
      "max": [
        0.9999674558639526,
        0.9996783137321472,
        0.9999810457229614,
        1.0
      ],
      "min": [
        -1.0,
        -0.9999109506607056,
        -0.999708354473114,
        -1.0
      ],
      "type": "VEC4"
    },
    {
      "bufferView": 1,
      "byteOffset": 524256,
      "componentType": 5126,
      "count": 65532,
      "max": [
        0.7812290191650391,
        0.9992190003395081
      ],
      "min": [
        0.0007810000097379088,
        0.17307299375534058
      ],
      "type": "VEC2"
    },
    {
      "bufferView": 0,
      "byteOffset": 1280148,
      "componentType": 5125,
      "count": 355332,
      "type": "SCALAR"
    },
    {
      "bufferView": 2,
      "byteOffset": 3145536,
      "componentType": 5126,
      "count": 55982,
      "max": [
        45.701377868652344,
        -36.70418930053711,
        15.729809761047363
      ],
      "min": [
        -9.537918090820313,
        -102.28514099121094,
        -60.29048538208008
      ],
      "type": "VEC3"
    },
    {
      "bufferView": 2,
      "byteOffset": 3817320,
      "componentType": 5126,
      "count": 55982,
      "max": [
        1.0,
        1.0,
        1.0
      ],
      "min": [
        -1.0,
        -1.0,
        -1.0
      ],
      "type": "VEC3"
    },
    {
      "bufferView": 3,
      "byteOffset": 2097024,
      "componentType": 5126,
      "count": 55982,
      "max": [
        0.9999200701713562,
        0.9999476671218872,
        1.0,
        1.0
      ],
      "min": [
        -1.0,
        -1.0,
        -0.9999589323997498,
        -1.0
      ],
      "type": "VEC4"
    },
    {
      "bufferView": 1,
      "byteOffset": 1048512,
      "componentType": 5126,
      "count": 55982,
      "max": [
        0.9501990079879761,
        0.9960939884185791
      ],
      "min": [
        0.08906199783086777,
        0.0009190000128000975
      ],
      "type": "VEC2"
    },
    {
      "bufferView": 0,
      "byteOffset": 2701476,
      "componentType": 5125,
      "count": 300003,
      "type": "SCALAR"
    }
  ],
  "asset": {
    "extras": {
      "author": "Vincent Lagardère (https://sketchfab.com/v.lagardere)",
      "license": "CC-BY-NC-4.0 (http://creativecommons.org/licenses/by-nc/4.0/)",
      "source": "https://sketchfab.com/3d-models/real-fungus-scan-3d-amanita-excelsa-05a4726453fb4e55a95fd727276b223e",
      "title": "Real fungus scan 3D - Amanita excelsa"
    },
    "generator": "Sketchfab-12.67.0",
    "version": "2.0"
  },
  "bufferViews": [
    {
      "buffer": 0,
      "byteLength": 3901488,
      "name": "floatBufferViews",
      "target": 34963
    },
    {
      "buffer": 0,
      "byteLength": 1496368,
      "byteOffset": 3901488,
      "byteStride": 8,
      "name": "floatBufferViews",
      "target": 34962
    },
    {
      "buffer": 0,
      "byteLength": 4489104,
      "byteOffset": 5397856,
      "byteStride": 12,
      "name": "floatBufferViews",
      "target": 34962
    },
    {
      "buffer": 0,
      "byteLength": 2992736,
      "byteOffset": 9886960,
      "byteStride": 16,
      "name": "floatBufferViews",
      "target": 34962
    }
  ],
  "buffers": [
    {
      "byteLength": 12879696,
      "uri": "scene.bin"
    }
  ],
  "extensionsRequired": [
    "KHR_materials_pbrSpecularGlossiness"
  ],
  "extensionsUsed": [
    "KHR_materials_pbrSpecularGlossiness"
  ],
  "images": [
    {
      "uri": "textures/material_0_diffuse.jpeg"
    },
    {
      "uri": "textures/material_0_normal.png"
    }
  ],
  "materials": [
    {
      "doubleSided": true,
      "extensions": {
        "KHR_materials_pbrSpecularGlossiness": {
          "diffuseFactor": [
            1.0,
            1.0,
            1.0,
            1.0
          ],
          "diffuseTexture": {
            "index": 0
          },
          "glossinessFactor": 0.4376586748096509,
          "specularFactor": [
            0.0,
            0.0,
            0.0
          ]
        }
      },
      "name": "material_0",
      "normalTexture": {
        "index": 1
      }
    }
  ],
  "meshes": [
    {
      "name": "Object_0",
      "primitives": [
        {
          "attributes": {
            "NORMAL": 1,
            "POSITION": 0,
            "TANGENT": 2,
            "TEXCOORD_0": 3
          },
          "indices": 4,
          "material": 0,
          "mode": 4
        }
      ]
    },
    {
      "name": "Object_1",
      "primitives": [
        {
          "attributes": {
            "NORMAL": 6,
            "POSITION": 5,
            "TANGENT": 7,
            "TEXCOORD_0": 8
          },
          "indices": 9,
          "material": 0,
          "mode": 4
        }
      ]
    },
    {
      "name": "Object_2",
      "primitives": [
        {
          "attributes": {
            "NORMAL": 11,
            "POSITION": 10,
            "TANGENT": 12,
            "TEXCOORD_0": 13
          },
          "indices": 14,
          "material": 0,
          "mode": 4
        }
      ]
    }
  ],
  "nodes": [
    {
      "children": [
        1
      ],
      "matrix": [
        -0.6969183087348938,
        1.3148382590643157e-16,
        -0.7171505093574524,
        0.0,
        0.5540705919265747,
        0.6348928809165956,
        -0.5384392142295836,
        0.0,
        0.4553137421607971,
        -0.7726001739501952,
        -0.4424684941768648,
        0.0,
        75.10902404785156,
        2.7828567028045583,
        32.73926544189453,
        1.0
      ],
      "name": "Sketchfab_model"
    },
    {
      "children": [
        2,
        3,
        4
      ],
      "name": "a-spissa_c.obj.cleaner.materialmerger.gles"
    },
    {
      "mesh": 0,
      "name": "Object_2"
    },
    {
      "mesh": 1,
      "name": "Object_3"
    },
    {
      "mesh": 2,
      "name": "Object_4"
    }
  ],
  "samplers": [
    {
      "magFilter": 9729,
      "minFilter": 9987,
      "wrapS": 10497,
      "wrapT": 10497
    }
  ],
  "scene": 0,
  "scenes": [
    {
      "name": "Sketchfab_Scene",
      "nodes": [
        0
      ]
    }
  ],
  "textures": [
    {
      "sampler": 0,
      "source": 0
    },
    {
      "sampler": 0,
      "source": 1
    }
  ]
}
