{
  "accessors": [
    {
      "bufferView": 2,
      "componentType": 5126,
      "count": 65532,
      "max": [
        41.88727951049805,
        51.963905334472656,
        35.72700881958008
      ],
      "min": [
        -32.69868087768555,
        -33.43528366088867,
        -52.83100891113281
      ],
      "type": "VEC3"
    },
    {
      "bufferView": 2,
      "byteOffset": 786384,
      "componentType": 5126,
      "count": 65532,
      "max": [
        1.0,
        1.0,
        1.0
      ],
      "min": [
        -1.0,
        -1.0,
        -1.0
      ],
      "type": "VEC3"
    },
    {
      "bufferView": 1,
      "componentType": 5126,
      "count": 65532,
      "max": [
        0.9985039830207825,
        0.9575889706611633
      ],
      "min": [
        0.0007440000190399587,
        0.0007459999760612845
      ],
      "type": "VEC2"
    },
    {
      "bufferView": 0,
      "componentType": 5125,
      "count": 266046,
      "type": "SCALAR"
    },
    {
      "bufferView": 2,
      "byteOffset": 1572768,
      "componentType": 5126,
      "count": 65532,
      "max": [
        41.32271957397461,
        50.26471710205078,
        35.93566131591797
      ],
      "min": [
        -35.249000549316406,
        -30.539508819580078,
        -54.81383514404297
      ],
      "type": "VEC3"
    },
    {
      "bufferView": 2,
      "byteOffset": 2359152,
      "componentType": 5126,
      "count": 65532,
      "max": [
        1.0,
        1.0,
        1.0
      ],
      "min": [
        -1.0,
        -1.0,
        -1.0
      ],
      "type": "VEC3"
    },
    {
      "bufferView": 1,
      "byteOffset": 524256,
      "componentType": 5126,
      "count": 65532,
      "max": [
        0.978941023349762,
        0.783482015132904
      ],
      "min": [
        0.00520800007507205,
        0.0008539999835193157
      ],
      "type": "VEC2"
    },
    {
      "bufferView": 0,
      "byteOffset": 1064184,
      "componentType": 5125,
      "count": 329430,
      "type": "SCALAR"
    },
    {
      "bufferView": 2,
      "byteOffset": 3145536,
      "componentType": 5126,
      "count": 65532,
      "max": [
        39.9208869934082,
        56.353302001953125,
        40.89569854736328
      ],
      "min": [
        -35.350860595703125,
        -32.235286712646484,
        -55.113834381103516
      ],
      "type": "VEC3"
    },
    {
      "bufferView": 2,
      "byteOffset": 3931920,
      "componentType": 5126,
      "count": 65532,
      "max": [
        1.0,
        1.0,
        1.0
      ],
      "min": [
        -1.0,
        -1.0,
        -1.0
      ],
      "type": "VEC3"
    },
    {
      "bufferView": 1,
      "byteOffset": 1048512,
      "componentType": 5126,
      "count": 65532,
      "max": [
        0.9965890049934387,
        0.950892984867096
      ],
      "min": [
        0.0044639999978244305,
        0.0011869999580085278
      ],
      "type": "VEC2"
    },
    {
      "bufferView": 0,
      "byteOffset": 2381904,
      "componentType": 5125,
      "count": 344802,
      "type": "SCALAR"
    },
    {
      "bufferView": 2,
      "byteOffset": 4718304,
      "componentType": 5126,
      "count": 65532,
      "max": [
        41.576683044433594,
        57.43794631958008,
        41.56578063964844
      ],
      "min": [
        -28.152196884155273,
        -24.73528480529785,
        -55.71370315551758
      ],
      "type": "VEC3"
    },
    {
      "bufferView": 2,
      "byteOffset": 5504688,
      "componentType": 5126,
      "count": 65532,
      "max": [
        1.0,
        1.0,
        1.0
      ],
      "min": [
        -1.0,
        -1.0,
        -1.0
      ],
      "type": "VEC3"
    },
    {
      "bufferView": 1,
      "byteOffset": 1572768,
      "componentType": 5126,
      "count": 65532,
      "max": [
        0.9137549996376038,
        0.7589290142059326
      ],
      "min": [
        0.0744049996137619,
        0.0007570000016130507
      ],
      "type": "VEC2"
    },
    {
      "bufferView": 0,
      "byteOffset": 3761112,
      "componentType": 5125,
      "count": 353598,
      "type": "SCALAR"
    },
    {
      "bufferView": 2,
      "byteOffset": 6291072,
      "componentType": 5126,
      "count": 65532,
      "max": [
        36.04780578613281,
        52.36471939086914,
        36.653316497802734
      ],
      "min": [
        -25.393695831298828,
        -29.23528480529785,
        -37.13418960571289
      ],
      "type": "VEC3"
    },
    {
      "bufferView": 2,
      "byteOffset": 7077456,
      "componentType": 5126,
      "count": 65532,
      "max": [
        1.0,
        1.0,
        1.0
      ],
      "min": [
        -1.0,
        -1.0,
        -1.0
      ],
      "type": "VEC3"
    },
    {
      "bufferView": 1,
      "byteOffset": 2097024,
      "componentType": 5126,
      "count": 65532,
      "max": [
        0.9786030054092407,
        0.9985120296478271
      ],
      "min": [
        0.375,
        0.18044300377368927
      ],
      "type": "VEC2"
    },
    {
      "bufferView": 0,
      "byteOffset": 5175504,
      "componentType": 5125,
      "count": 356952,
      "type": "SCALAR"
    },
    {
      "bufferView": 2,
      "byteOffset": 7863840,
      "componentType": 5126,
      "count": 65532,
      "max": [
        41.08808517456055,
        58.66466522216797,
        34.5861701965332
      ],
      "min": [
        -33.901023864746094,
        -16.393024444580078,
        -55.71370315551758
      ],
      "type": "VEC3"
    },
    {
      "bufferView": 2,
      "byteOffset": 8650224,
      "componentType": 5126,
      "count": 65532,
      "max": [
        1.0,
        0.9997447729110718,
        1.0
      ],
      "min": [
        -1.0,
        -1.0,
        -0.9998870491981506
      ],
      "type": "VEC3"
    },
    {
      "bufferView": 1,
      "byteOffset": 2621280,
      "componentType": 5126,
      "count": 65532,
      "max": [
        0.8858230113983154,
        0.9992560148239136
      ],
      "min": [
        0.0007440000190399587,
        0.6930390000343323
      ],
      "type": "VEC2"
    },
    {
      "bufferView": 0,
      "byteOffset": 6603312,
      "componentType": 5125,
      "count": 353367,
      "type": "SCALAR"
    },
    {
      "bufferView": 2,
      "byteOffset": 9436608,
      "componentType": 5126,
      "count": 65532,
      "max": [
        40.84780502319336,
        58.66466522216797,
        41.729103088378906
      ],
      "min": [
        -35.070255279541016,
        -35.82719039916992,
        -55.713809967041016
      ],
      "type": "VEC3"
    },
    {
      "bufferView": 2,
      "byteOffset": 10222992,
      "componentType": 5126,
      "count": 65532,
      "max": [
        1.0,
        0.9999999403953552,
        1.0
      ],
      "min": [
        -1.0,
        -1.0,
        -1.0
      ],
      "type": "VEC3"
    },
    {
      "bufferView": 1,
      "byteOffset": 3145536,
      "componentType": 5126,
      "count": 65532,
      "max": [
        0.8279470205307007,
        0.9979910254478455
      ],
      "min": [
        0.0012969999806955457,
        0.49849000573158264
      ],
      "type": "VEC2"
    },
    {
      "bufferView": 0,
      "byteOffset": 8016780,
      "componentType": 5125,
      "count": 331887,
      "type": "SCALAR"
    },
    {
      "bufferView": 2,
      "byteOffset": 11009376,
      "componentType": 5126,
      "count": 65532,
      "max": [
        21.416624069213867,
        30.358064651489258,
        41.49293518066406
      ],
      "min": [
        -31.0128116607666,
        -35.82051467895508,
        -21.76031494140625
      ],
      "type": "VEC3"
    },
    {
      "bufferView": 2,
      "byteOffset": 11795760,
      "componentType": 5126,
      "count": 65532,
      "max": [
        1.0,
        1.0,
        1.0
      ],
      "min": [
        -1.0,
        -1.0,
        -1.0
      ],
      "type": "VEC3"
    },
    {
      "bufferView": 1,
      "byteOffset": 3669792,
      "componentType": 5126,
      "count": 65532,
      "max": [
        0.9300749897956848,
        0.75
      ],
      "min": [
        0.002314999932423234,
        0.08616100251674652
      ],
      "type": "VEC2"
    },
    {
      "bufferView": 0,
      "byteOffset": 9344328,
      "componentType": 5125,
      "count": 360519,
      "type": "SCALAR"
    },
    {
      "bufferView": 2,
      "byteOffset": 12582144,
      "componentType": 5126,
      "count": 44161,
      "max": [
        39.34780502319336,
        58.36015319824219,
        33.30159378051758
      ],
      "min": [
        -25.393695831298828,
        -23.585390090942383,
        -42.513832092285156
      ],
      "type": "VEC3"
    },
    {
      "bufferView": 2,
      "byteOffset": 13112076,
      "componentType": 5126,
      "count": 44161,
      "max": [
        1.0,
        1.0,
        1.0
      ],
      "min": [
        -1.0,
        -1.0,
        -1.0
      ],
      "type": "VEC3"
    },
    {
      "bufferView": 1,
      "byteOffset": 4194048,
      "componentType": 5126,
      "count": 44161,
      "max": [
        0.9182270169258118,
        0.9501489996910095
      ],
      "min": [
        0.04241099953651428,
        0.29798799753189087
      ],
      "type": "VEC2"
    },
    {
      "bufferView": 0,
      "byteOffset": 10786404,
      "componentType": 5125,
      "count": 239385,
      "type": "SCALAR"
    }
  ],
  "asset": {
    "extras": {
      "author": "Vincent Lagardère (https://sketchfab.com/v.lagardere)",
      "license": "CC-BY-NC-4.0 (http://creativecommons.org/licenses/by-nc/4.0/)",
      "source": "https://sketchfab.com/3d-models/real-fungus-3d-scan-coprinellus-sp-316d4b7e0de04363943289532e9a4d72",
      "title": "Real Fungus 3D scan - Coprinellus sp."
    },
    "generator": "Sketchfab-12.67.0",
    "version": "2.0"
  },
  "bufferViews": [
    {
      "buffer": 0,
      "byteLength": 11743944,
      "name": "floatBufferViews",
      "target": 34963
    },
    {
      "buffer": 0,
      "byteLength": 4547336,
      "byteOffset": 11743944,
      "byteStride": 8,
      "name": "floatBufferViews",
      "target": 34962
    },
    {
      "buffer": 0,
      "byteLength": 13642008,
      "byteOffset": 16291280,
      "byteStride": 12,
      "name": "floatBufferViews",
      "target": 34962
    }
  ],
  "buffers": [
    {
      "byteLength": 29933288,
      "uri": "scene.bin"
    }
  ],
  "extensionsUsed": [
    "KHR_materials_unlit"
  ],
  "images": [
    {
      "uri": "textures/material_0_baseColor.jpeg"
    }
  ],
  "materials": [
    {
      "doubleSided": true,
      "extensions": {
        "KHR_materials_unlit": {}
      },
      "name": "material_0",
      "pbrMetallicRoughness": {
        "baseColorFactor": [
          0.8559597307705933,
          0.8559597307705933,
          0.8559597307705933,
          1.0
        ],
        "baseColorTexture": {
          "index": 0
        },
        "metallicFactor": 0.0
      }
    }
  ],
  "meshes": [
    {
      "name": "Object_0",
      "primitives": [
        {
          "attributes": {
            "NORMAL": 1,
            "POSITION": 0,
            "TEXCOORD_0": 2
          },
          "indices": 3,
          "material": 0,
          "mode": 4
        }
      ]
    },
    {
      "name": "Object_1",
      "primitives": [
        {
          "attributes": {
            "NORMAL": 5,
            "POSITION": 4,
            "TEXCOORD_0": 6
          },
          "indices": 7,
          "material": 0,
          "mode": 4
        }
      ]
    },
    {
      "name": "Object_2",
      "primitives": [
        {
          "attributes": {
            "NORMAL": 9,
            "POSITION": 8,
            "TEXCOORD_0": 10
          },
          "indices": 11,
          "material": 0,
          "mode": 4
        }
      ]
    },
    {
      "name": "Object_3",
      "primitives": [
        {
          "attributes": {
            "NORMAL": 13,
            "POSITION": 12,
            "TEXCOORD_0": 14
          },
          "indices": 15,
          "material": 0,
          "mode": 4
        }
      ]
    },
    {
      "name": "Object_4",
      "primitives": [
        {
          "attributes": {
            "NORMAL": 17,
            "POSITION": 16,
            "TEXCOORD_0": 18
          },
          "indices": 19,
          "material": 0,
          "mode": 4
        }
      ]
    },
    {
      "name": "Object_5",
      "primitives": [
        {
          "attributes": {
            "NORMAL": 21,
            "POSITION": 20,
            "TEXCOORD_0": 22
          },
          "indices": 23,
          "material": 0,
          "mode": 4
        }
      ]
    },
    {
      "name": "Object_6",
      "primitives": [
        {
          "attributes": {
            "NORMAL": 25,
            "POSITION": 24,
            "TEXCOORD_0": 26
          },
          "indices": 27,
          "material": 0,
          "mode": 4
        }
      ]
    },
    {
      "name": "Object_7",
      "primitives": [
        {
          "attributes": {
            "NORMAL": 29,
            "POSITION": 28,
            "TEXCOORD_0": 30
          },
          "indices": 31,
          "material": 0,
          "mode": 4
        }
      ]
    },
    {
      "name": "Object_8",
      "primitives": [
        {
          "attributes": {
            "NORMAL": 33,
            "POSITION": 32,
            "TEXCOORD_0": 34
          },
          "indices": 35,
          "material": 0,
          "mode": 4
        }
      ]
    }
  ],
  "nodes": [
    {
      "children": [
        1
      ],
      "matrix": [
        -0.002540411427617073,
        1.1102158777846641e-16,
        -0.9999967813491821,
        0.0,
        -0.9034523367881775,
        -0.42868247628211975,
        0.002295148093253279,
        0.0,
        -0.42868107557296753,
        0.9034551978111267,
        0.0010890298290180186,
        0.0,
        10.595117568969727,
        4.219905853271486,
        -8.16918087005615,
        1.0
      ],
      "name": "Sketchfab_model"
    },
    {
      "children": [
        2,
        3,
        4,
        5,
        6,
        7,
        8,
        9,
        10
      ],
      "name": "champ1.obj.cleaner.materialmerger.gles"
    },
    {
      "mesh": 0,
      "name": "Object_2"
    },
    {
      "mesh": 1,
      "name": "Object_3"
    },
    {
      "mesh": 2,
      "name": "Object_4"
    },
    {
      "mesh": 3,
      "name": "Object_5"
    },
    {
      "mesh": 4,
      "name": "Object_6"
    },
    {
      "mesh": 5,
      "name": "Object_7"
    },
    {
      "mesh": 6,
      "name": "Object_8"
    },
    {
      "mesh": 7,
      "name": "Object_9"
    },
    {
      "mesh": 8,
      "name": "Object_10"
    }
  ],
  "samplers": [
    {
      "magFilter": 9729,
      "minFilter": 9987,
      "wrapS": 10497,
      "wrapT": 10497
    }
  ],
  "scene": 0,
  "scenes": [
    {
      "name": "Sketchfab_Scene",
      "nodes": [
        0
      ]
    }
  ],
  "textures": [
    {
      "sampler": 0,
      "source": 0
    }
  ]
}
