{
  "accessors": [
    {
      "bufferView": 2,
      "componentType": 5126,
      "count": 65532,
      "max": [
        68.61918640136719,
        44.19013595581055,
        16.84902000427246
      ],
      "min": [
        -42.3602409362793,
        -45.88020706176758,
        -53.99773025512695
      ],
      "type": "VEC3"
    },
    {
      "bufferView": 2,
      "byteOffset": 786384,
      "componentType": 5126,
      "count": 65532,
      "max": [
        1.0,
        1.0,
        1.0
      ],
      "min": [
        -1.0,
        -1.0,
        -1.0
      ],
      "type": "VEC3"
    },
    {
      "bufferView": 3,
      "componentType": 5126,
      "count": 65532,
      "max": [
        0.999998927116394,
        0.9999996423721313,
        1.0,
        1.0
      ],
      "min": [
        -0.9999973177909851,
        -0.9999459385871887,
        -0.999973475933075,
        -1.0
      ],
      "type": "VEC4"
    },
    {
      "bufferView": 1,
      "componentType": 5126,
      "count": 65532,
      "max": [
        0.9976180195808411,
        0.9992190003395081
      ],
      "min": [
        0.0007810000097379088,
        0.0007820000173524022
      ],
      "type": "VEC2"
    },
    {
      "bufferView": 0,
      "componentType": 5125,
      "count": 232734,
      "type": "SCALAR"
    },
    {
      "bufferView": 2,
      "byteOffset": 1572768,
      "componentType": 5126,
      "count": 65532,
      "max": [
        68.65213012695313,
        44.755558013916016,
        44.137977600097656
      ],
      "min": [
        -48.2508430480957,
        -47.77592086791992,
        -60.8319206237793
      ],
      "type": "VEC3"
    },
    {
      "bufferView": 2,
      "byteOffset": 2359152,
      "componentType": 5126,
      "count": 65532,
      "max": [
        1.0,
        1.0,
        1.0
      ],
      "min": [
        -0.9999726414680481,
        -1.0,
        -1.0
      ],
      "type": "VEC3"
    },
    {
      "bufferView": 3,
      "byteOffset": 1048512,
      "componentType": 5126,
      "count": 65532,
      "max": [
        0.9999987483024597,
        0.999789297580719,
        0.999924898147583,
        1.0
      ],
      "min": [
        -0.9999265670776367,
        -0.9999948740005493,
        -0.9999800324440002,
        1.0
      ],
      "type": "VEC4"
    },
    {
      "bufferView": 1,
      "byteOffset": 524256,
      "componentType": 5126,
      "count": 65532,
      "max": [
        0.9542310237884521,
        0.8484370112419128
      ],
      "min": [
        0.046875,
        0.0011950000189244747
      ],
      "type": "VEC2"
    },
    {
      "bufferView": 0,
      "byteOffset": 930936,
      "componentType": 5125,
      "count": 356616,
      "type": "SCALAR"
    },
    {
      "bufferView": 2,
      "byteOffset": 3145536,
      "componentType": 5126,
      "count": 65532,
      "max": [
        61.143829345703125,
        66.645263671875,
        29.417022705078125
      ],
      "min": [
        -69.05751037597656,
        -41.874549865722656,
        -62.662513732910156
      ],
      "type": "VEC3"
    },
    {
      "bufferView": 2,
      "byteOffset": 3931920,
      "componentType": 5126,
      "count": 65532,
      "max": [
        1.0,
        1.0,
        0.9999743103981018
      ],
      "min": [
        -0.9999703168869019,
        -1.0,
        -1.0
      ],
      "type": "VEC3"
    },
    {
      "bufferView": 3,
      "byteOffset": 2097024,
      "componentType": 5126,
      "count": 65532,
      "max": [
        0.9999839067459106,
        0.999968409538269,
        0.9998494386672974,
        1.0
      ],
      "min": [
        -0.9999668598175049,
        -0.9988959431648254,
        -0.9997611045837402,
        1.0
      ],
      "type": "VEC4"
    },
    {
      "bufferView": 1,
      "byteOffset": 1048512,
      "componentType": 5126,
      "count": 65532,
      "max": [
        0.9656950235366821,
        0.841405987739563
      ],
      "min": [
        0.04296899959445,
        0.011943000368773937
      ],
      "type": "VEC2"
    },
    {
      "bufferView": 0,
      "byteOffset": 2357400,
      "componentType": 5125,
      "count": 356748,
      "type": "SCALAR"
    },
    {
      "bufferView": 2,
      "byteOffset": 4718304,
      "componentType": 5126,
      "count": 65532,
      "max": [
        45.89076614379883,
        69.57412719726563,
        49.99681854248047
      ],
      "min": [
        -66.39159393310547,
        -23.46044921875,
        -48.01336669921875
      ],
      "type": "VEC3"
    },
    {
      "bufferView": 2,
      "byteOffset": 5504688,
      "componentType": 5126,
      "count": 65532,
      "max": [
        0.9999999403953552,
        1.0,
        0.9999820590019226
      ],
      "min": [
        -0.9999281764030457,
        -0.9999872446060181,
        -1.0
      ],
      "type": "VEC3"
    },
    {
      "bufferView": 3,
      "byteOffset": 3145536,
      "componentType": 5126,
      "count": 65532,
      "max": [
        0.9989422559738159,
        0.9999339580535889,
        0.9994215965270996,
        1.0
      ],
      "min": [
        -0.9999962449073792,
        -0.9997556209564209,
        -0.9999068379402161,
        1.0
      ],
      "type": "VEC4"
    },
    {
      "bufferView": 1,
      "byteOffset": 1572768,
      "componentType": 5126,
      "count": 65532,
      "max": [
        0.9859709739685059,
        0.9992190003395081
      ],
      "min": [
        0.39536499977111816,
        0.560509979724884
      ],
      "type": "VEC2"
    },
    {
      "bufferView": 0,
      "byteOffset": 3784392,
      "componentType": 5125,
      "count": 362517,
      "type": "SCALAR"
    },
    {
      "bufferView": 2,
      "byteOffset": 6291072,
      "componentType": 5126,
      "count": 65532,
      "max": [
        37.787681579589844,
        44.30649948120117,
        55.726627349853516
      ],
      "min": [
        -69.43783569335938,
        -29.950939178466797,
        -59.76862716674805
      ],
      "type": "VEC3"
    },
    {
      "bufferView": 2,
      "byteOffset": 7077456,
      "componentType": 5126,
      "count": 65532,
      "max": [
        0.9999999403953552,
        0.9999971985816956,
        1.0
      ],
      "min": [
        -0.999998152256012,
        -0.9999924302101135,
        -0.9999069571495056
      ],
      "type": "VEC3"
    },
    {
      "bufferView": 3,
      "byteOffset": 4194048,
      "componentType": 5126,
      "count": 65532,
      "max": [
        0.9999327659606934,
        1.0,
        0.9996986389160156,
        1.0
      ],
      "min": [
        -0.9998840689659119,
        -0.9773103594779968,
        -0.9979305267333984,
        1.0
      ],
      "type": "VEC4"
    },
    {
      "bufferView": 1,
      "byteOffset": 2097024,
      "componentType": 5126,
      "count": 65532,
      "max": [
        0.7917919754981995,
        0.9992190003395081
      ],
      "min": [
        0.0007810000097379088,
        0.5855100154876709
      ],
      "type": "VEC2"
    },
    {
      "bufferView": 0,
      "byteOffset": 5234460,
      "componentType": 5125,
      "count": 360054,
      "type": "SCALAR"
    },
    {
      "bufferView": 2,
      "byteOffset": 7863840,
      "componentType": 5126,
      "count": 65532,
      "max": [
        54.033451080322266,
        69.51592254638672,
        33.98517990112305
      ],
      "min": [
        -66.074462890625,
        -49.477500915527344,
        -62.58915328979492
      ],
      "type": "VEC3"
    },
    {
      "bufferView": 2,
      "byteOffset": 8650224,
      "componentType": 5126,
      "count": 65532,
      "max": [
        0.9997612833976746,
        0.9999816417694092,
        1.0
      ],
      "min": [
        -1.0,
        -0.9999967217445374,
        -0.9999721646308899
      ],
      "type": "VEC3"
    },
    {
      "bufferView": 3,
      "byteOffset": 5242560,
      "componentType": 5126,
      "count": 65532,
      "max": [
        0.9969602227210999,
        0.999968409538269,
        0.9999547600746155,
        1.0
      ],
      "min": [
        -0.9925155639648438,
        -0.9985458254814148,
        -0.9999321699142456,
        1.0
      ],
      "type": "VEC4"
    },
    {
      "bufferView": 1,
      "byteOffset": 2621280,
      "componentType": 5126,
      "count": 65532,
      "max": [
        0.7924349904060364,
        0.7665989995002747
      ],
      "min": [
        0.025908999145030975,
        0.04496999830007553
      ],
      "type": "VEC2"
    },
    {
      "bufferView": 0,
      "byteOffset": 6674676,
      "componentType": 5125,
      "count": 361911,
      "type": "SCALAR"
    },
    {
      "bufferView": 2,
      "byteOffset": 9436608,
      "componentType": 5126,
      "count": 54355,
      "max": [
        63.5525016784668,
        54.07963562011719,
        38.13182067871094
      ],
      "min": [
        -48.04814147949219,
        -49.477500915527344,
        -62.65908432006836
      ],
      "type": "VEC3"
    },
    {
      "bufferView": 2,
      "byteOffset": 10088868,
      "componentType": 5126,
      "count": 54355,
      "max": [
        0.999951183795929,
        0.9999822974205017,
        1.0
      ],
      "min": [
        -1.0,
        -1.0,
        -1.0
      ],
      "type": "VEC3"
    },
    {
      "bufferView": 3,
      "byteOffset": 6291072,
      "componentType": 5126,
      "count": 54355,
      "max": [
        1.0,
        1.0,
        0.9999497532844543,
        1.0
      ],
      "min": [
        -0.9991300106048584,
        -0.9999573826789856,
        -1.0,
        -1.0
      ],
      "type": "VEC4"
    },
    {
      "bufferView": 1,
      "byteOffset": 3145536,
      "componentType": 5126,
      "count": 54355,
      "max": [
        0.8624410033226013,
        0.8671879768371582
      ],
      "min": [
        0.008593999780714512,
        0.0957380011677742
      ],
      "type": "VEC2"
    },
    {
      "bufferView": 0,
      "byteOffset": 8122320,
      "componentType": 5125,
      "count": 303768,
      "type": "SCALAR"
    }
  ],
  "asset": {
    "extras": {
      "author": "Vincent Lagardère (https://sketchfab.com/v.lagardere)",
      "license": "CC-BY-NC-ND-4.0 (http://creativecommons.org/licenses/by-nc-nd/4.0/)",
      "source": "https://sketchfab.com/3d-models/laetiporus-sulphureus-real-fungus-3d-scan-2b5ba04f3c184046b858cf80b0c35cd9",
      "title": "Laetiporus sulphureus - Real fungus 3D scan"
    },
    "generator": "Sketchfab-12.67.0",
    "version": "2.0"
  },
  "bufferViews": [
    {
      "buffer": 0,
      "byteLength": 9337392,
      "name": "floatBufferViews",
      "target": 34963
    },
    {
      "buffer": 0,
      "byteLength": 3580376,
      "byteOffset": 9337392,
      "byteStride": 8,
      "name": "floatBufferViews",
      "target": 34962
    },
    {
      "buffer": 0,
      "byteLength": 10741128,
      "byteOffset": 12917768,
      "byteStride": 12,
      "name": "floatBufferViews",
      "target": 34962
    },
    {
      "buffer": 0,
      "byteLength": 7160752,
      "byteOffset": 23658896,
      "byteStride": 16,
      "name": "floatBufferViews",
      "target": 34962
    }
  ],
  "buffers": [
    {
      "byteLength": 30819648,
      "uri": "scene.bin"
    }
  ],
  "extensionsRequired": [
    "KHR_materials_pbrSpecularGlossiness"
  ],
  "extensionsUsed": [
    "KHR_materials_pbrSpecularGlossiness"
  ],
  "images": [
    {
      "uri": "textures/material_0_diffuse.jpeg"
    },
    {
      "uri": "textures/material_0_normal.png"
    }
  ],
  "materials": [
    {
      "doubleSided": true,
      "extensions": {
        "KHR_materials_pbrSpecularGlossiness": {
          "diffuseFactor": [
            1.0,
            1.0,
            1.0,
            1.0
          ],
          "diffuseTexture": {
            "index": 0
          },
          "glossinessFactor": 0.0,
          "specularFactor": [
            0.0,
            0.0,
            0.0
          ]
        }
      },
      "name": "material_0",
      "normalTexture": {
        "index": 1
      }
    }
  ],
  "meshes": [
    {
      "name": "Object_0",
      "primitives": [
        {
          "attributes": {
            "NORMAL": 1,
            "POSITION": 0,
            "TANGENT": 2,
            "TEXCOORD_0": 3
          },
          "indices": 4,
          "material": 0,
          "mode": 4
        }
      ]
    },
    {
      "name": "Object_1",
      "primitives": [
        {
          "attributes": {
            "NORMAL": 6,
            "POSITION": 5,
            "TANGENT": 7,
            "TEXCOORD_0": 8
          },
          "indices": 9,
          "material": 0,
          "mode": 4
        }
      ]
    },
    {
      "name": "Object_2",
      "primitives": [
        {
          "attributes": {
            "NORMAL": 11,
            "POSITION": 10,
            "TANGENT": 12,
            "TEXCOORD_0": 13
          },
          "indices": 14,
          "material": 0,
          "mode": 4
        }
      ]
    },
    {
      "name": "Object_3",
      "primitives": [
        {
          "attributes": {
            "NORMAL": 16,
            "POSITION": 15,
            "TANGENT": 17,
            "TEXCOORD_0": 18
          },
          "indices": 19,
          "material": 0,
          "mode": 4
        }
      ]
    },
    {
      "name": "Object_4",
      "primitives": [
        {
          "attributes": {
            "NORMAL": 21,
            "POSITION": 20,
            "TANGENT": 22,
            "TEXCOORD_0": 23
          },
          "indices": 24,
          "material": 0,
          "mode": 4
        }
      ]
    },
    {
      "name": "Object_5",
      "primitives": [
        {
          "attributes": {
            "NORMAL": 26,
            "POSITION": 25,
            "TANGENT": 27,
            "TEXCOORD_0": 28
          },
          "indices": 29,
          "material": 0,
          "mode": 4
        }
      ]
    },
    {
      "name": "Object_6",
      "primitives": [
        {
          "attributes": {
            "NORMAL": 31,
            "POSITION": 30,
            "TANGENT": 32,
            "TEXCOORD_0": 33
          },
          "indices": 34,
          "material": 0,
          "mode": 4
        }
      ]
    }
  ],
  "nodes": [
    {
      "children": [
        1
      ],
      "matrix": [
        -0.7245492935180664,
        -0.20930138230323805,
        0.6566743850708008,
        0.0,
        0.5240762233734131,
        -0.7861062288284303,
        0.32769048213958724,
        0.0,
        0.44762977957725525,
        0.5815753340721129,
        0.6792626380920411,
        0.0,
        -4.391230583190918,
        6.365687370300296,
        -10.727325439453123,
        1.0
      ],
      "name": "Sketchfab_model"
    },
    {
      "children": [
        2,
        3,
        4,
        5,
        6,
        7,
        8
      ],
      "name": "laetiporus.obj.cleaner.materialmerger.gles"
    },
    {
      "mesh": 0,
      "name": "Object_2"
    },
    {
      "mesh": 1,
      "name": "Object_3"
    },
    {
      "mesh": 2,
      "name": "Object_4"
    },
    {
      "mesh": 3,
      "name": "Object_5"
    },
    {
      "mesh": 4,
      "name": "Object_6"
    },
    {
      "mesh": 5,
      "name": "Object_7"
    },
    {
      "mesh": 6,
      "name": "Object_8"
    }
  ],
  "samplers": [
    {
      "magFilter": 9729,
      "minFilter": 9987,
      "wrapS": 10497,
      "wrapT": 10497
    }
  ],
  "scene": 0,
  "scenes": [
    {
      "name": "Sketchfab_Scene",
      "nodes": [
        0
      ]
    }
  ],
  "textures": [
    {
      "sampler": 0,
      "source": 0
    },
    {
      "sampler": 0,
      "source": 1
    }
  ]
}
