{
  "accessors": [
    {
      "bufferView": 2,
      "componentType": 5126,
      "count": 65532,
      "max": [
        63.650875091552734,
        0.48410600423812866,
        30.306833267211914
      ],
      "min": [
        -7.521244049072266,
        -40.862857818603516,
        -60.91353225708008
      ],
      "type": "VEC3"
    },
    {
      "bufferView": 2,
      "byteOffset": 786384,
      "componentType": 5126,
      "count": 65532,
      "max": [
        1.0,
        1.0,
        1.0
      ],
      "min": [
        -0.9999714493751526,
        -1.0,
        -1.0
      ],
      "type": "VEC3"
    },
    {
      "bufferView": 3,
      "componentType": 5126,
      "count": 65532,
      "max": [
        0.9999937415122986,
        0.9999940395355225,
        0.999993622303009,
        1.0
      ],
      "min": [
        -0.9999960660934448,
        -0.9999935626983643,
        -1.0,
        -1.0
      ],
      "type": "VEC4"
    },
    {
      "bufferView": 1,
      "componentType": 5126,
      "count": 65532,
      "max": [
        0.9979730248451233,
        0.9015629887580872
      ],
      "min": [
        0.0007810000097379088,
        0.0007900000200606883
      ],
      "type": "VEC2"
    },
    {
      "bufferView": 0,
      "componentType": 5125,
      "count": 347994,
      "type": "SCALAR"
    },
    {
      "bufferView": 2,
      "byteOffset": 1572768,
      "componentType": 5126,
      "count": 65532,
      "max": [
        59.99342346191406,
        17.97176170349121,
        43.90683364868164
      ],
      "min": [
        -31.755718231201172,
        -41.087982177734375,
        -58.090965270996094
      ],
      "type": "VEC3"
    },
    {
      "bufferView": 2,
      "byteOffset": 2359152,
      "componentType": 5126,
      "count": 65532,
      "max": [
        1.0,
        1.0,
        1.0
      ],
      "min": [
        -1.0,
        -1.0,
        -1.0
      ],
      "type": "VEC3"
    },
    {
      "bufferView": 3,
      "byteOffset": 1048512,
      "componentType": 5126,
      "count": 65532,
      "max": [
        0.9916424751281738,
        0.9993366599082947,
        0.9999926090240479,
        1.0
      ],
      "min": [
        -0.999217689037323,
        -0.9999984502792358,
        -1.0,
        -1.0
      ],
      "type": "VEC4"
    },
    {
      "bufferView": 1,
      "byteOffset": 524256,
      "componentType": 5126,
      "count": 65532,
      "max": [
        0.9000779986381531,
        0.9981080293655396
      ],
      "min": [
        0.34531301259994507,
        0.025479000061750412
      ],
      "type": "VEC2"
    },
    {
      "bufferView": 0,
      "byteOffset": 1391976,
      "componentType": 5125,
      "count": 351039,
      "type": "SCALAR"
    },
    {
      "bufferView": 2,
      "byteOffset": 3145536,
      "componentType": 5126,
      "count": 65532,
      "max": [
        30.193422317504883,
        17.988096237182617,
        44.30683517456055
      ],
      "min": [
        -31.850393295288086,
        -35.41175079345703,
        -38.09316635131836
      ],
      "type": "VEC3"
    },
    {
      "bufferView": 2,
      "byteOffset": 3931920,
      "componentType": 5126,
      "count": 65532,
      "max": [
        1.0,
        1.0,
        1.0
      ],
      "min": [
        -1.0,
        -1.0,
        -0.9998281002044678
      ],
      "type": "VEC3"
    },
    {
      "bufferView": 3,
      "byteOffset": 2097024,
      "componentType": 5126,
      "count": 65532,
      "max": [
        0.36867469549179077,
        0.9999885559082031,
        0.8211409449577332,
        1.0
      ],
      "min": [
        -0.9995405077934265,
        -0.999814510345459,
        -0.9676297307014465,
        1.0
      ],
      "type": "VEC4"
    },
    {
      "bufferView": 1,
      "byteOffset": 1048512,
      "componentType": 5126,
      "count": 65532,
      "max": [
        0.8143050074577332,
        0.9988020062446594
      ],
      "min": [
        0.0039059999398887157,
        0.02209099940955639
      ],
      "type": "VEC2"
    },
    {
      "bufferView": 0,
      "byteOffset": 2796132,
      "componentType": 5125,
      "count": 352311,
      "type": "SCALAR"
    },
    {
      "bufferView": 2,
      "byteOffset": 4718304,
      "componentType": 5126,
      "count": 65533,
      "max": [
        22.393423080444336,
        17.988096237182617,
        44.12181091308594
      ],
      "min": [
        -32.06117248535156,
        -32.49623489379883,
        -36.69316864013672
      ],
      "type": "VEC3"
    },
    {
      "bufferView": 2,
      "byteOffset": 5504700,
      "componentType": 5126,
      "count": 65533,
      "max": [
        0.999879777431488,
        0.9997810125350952,
        1.0
      ],
      "min": [
        -1.0,
        -1.0,
        -1.0
      ],
      "type": "VEC3"
    },
    {
      "bufferView": 3,
      "byteOffset": 3145536,
      "componentType": 5126,
      "count": 65533,
      "max": [
        0.9999951720237732,
        0.998401403427124,
        0.9998859763145447,
        1.0
      ],
      "min": [
        -0.9941366910934448,
        -0.9729779958724976,
        -0.989785373210907,
        -1.0
      ],
      "type": "VEC4"
    },
    {
      "bufferView": 1,
      "byteOffset": 1572768,
      "componentType": 5126,
      "count": 65533,
      "max": [
        0.7790619730949402,
        0.9992190003395081
      ],
      "min": [
        0.0007810000097379088,
        0.024292999878525734
      ],
      "type": "VEC2"
    },
    {
      "bufferView": 0,
      "byteOffset": 4205376,
      "componentType": 5125,
      "count": 365709,
      "type": "SCALAR"
    },
    {
      "bufferView": 2,
      "byteOffset": 6291096,
      "componentType": 5126,
      "count": 65532,
      "max": [
        10.593421936035156,
        8.284106254577637,
        44.78074264526367
      ],
      "min": [
        -32.06117248535156,
        -23.21064567565918,
        -30.769275665283203
      ],
      "type": "VEC3"
    },
    {
      "bufferView": 2,
      "byteOffset": 7077480,
      "componentType": 5126,
      "count": 65532,
      "max": [
        0.961083710193634,
        1.0,
        0.9999911785125732
      ],
      "min": [
        -1.0,
        -0.9966767430305481,
        -0.9891698956489563
      ],
      "type": "VEC3"
    },
    {
      "bufferView": 3,
      "byteOffset": 4194064,
      "componentType": 5126,
      "count": 65532,
      "max": [
        0.9983498454093933,
        0.9988569617271423,
        0.9985992312431335,
        1.0
      ],
      "min": [
        -0.9878813624382019,
        -0.9935183525085449,
        -0.7927984595298767,
        1.0
      ],
      "type": "VEC4"
    },
    {
      "bufferView": 1,
      "byteOffset": 2097032,
      "componentType": 5126,
      "count": 65532,
      "max": [
        0.9982399940490723,
        0.9992190003395081
      ],
      "min": [
        0.33319801092147827,
        0.3001050055027008
      ],
      "type": "VEC2"
    },
    {
      "bufferView": 0,
      "byteOffset": 5668212,
      "componentType": 5125,
      "count": 358806,
      "type": "SCALAR"
    },
    {
      "bufferView": 2,
      "byteOffset": 7863864,
      "componentType": 5126,
      "count": 65532,
      "max": [
        50.3934211730957,
        2.1424190998077393,
        27.841514587402344
      ],
      "min": [
        -17.406578063964844,
        -36.80623245239258,
        -55.493167877197266
      ],
      "type": "VEC3"
    },
    {
      "bufferView": 2,
      "byteOffset": 8650248,
      "componentType": 5126,
      "count": 65532,
      "max": [
        1.0,
        1.0,
        1.0
      ],
      "min": [
        -1.0,
        -1.0,
        -1.0
      ],
      "type": "VEC3"
    },
    {
      "bufferView": 3,
      "byteOffset": 5242576,
      "componentType": 5126,
      "count": 65532,
      "max": [
        0.9995039701461792,
        0.999764084815979,
        0.9992696046829224,
        1.0
      ],
      "min": [
        -0.9991368651390076,
        -0.9994392991065979,
        -0.9999993443489075,
        1.0
      ],
      "type": "VEC4"
    },
    {
      "bufferView": 1,
      "byteOffset": 2621288,
      "componentType": 5126,
      "count": 65532,
      "max": [
        0.9166520237922668,
        0.8343750238418579
      ],
      "min": [
        0.33281201124191284,
        0.09130699932575226
      ],
      "type": "VEC2"
    },
    {
      "bufferView": 0,
      "byteOffset": 7103436,
      "componentType": 5125,
      "count": 346311,
      "type": "SCALAR"
    },
    {
      "bufferView": 2,
      "byteOffset": 9436632,
      "componentType": 5126,
      "count": 390,
      "max": [
        46.38955307006836,
        -19.315893173217773,
        -32.69316864013672
      ],
      "min": [
        27.99342155456543,
        -36.86176681518555,
        -42.23779296875
      ],
      "type": "VEC3"
    },
    {
      "bufferView": 2,
      "byteOffset": 9441312,
      "componentType": 5126,
      "count": 390,
      "max": [
        0.9922397136688232,
        0.9978617429733276,
        1.0
      ],
      "min": [
        -0.17528970539569855,
        -0.8129383325576782,
        -0.022104449570178986
      ],
      "type": "VEC3"
    },
    {
      "bufferView": 3,
      "byteOffset": 6291088,
      "componentType": 5126,
      "count": 390,
      "max": [
        -0.06383445113897324,
        0.45872506499290466,
        0.9178410768508911,
        1.0
      ],
      "min": [
        -0.992409884929657,
        -0.7324345111846924,
        -0.13667809963226318,
        1.0
      ],
      "type": "VEC4"
    },
    {
      "bufferView": 1,
      "byteOffset": 3145544,
      "componentType": 5126,
      "count": 390,
      "max": [
        0.4633449912071228,
        0.2902059853076935
      ],
      "min": [
        0.34870898723602295,
        0.10525400191545486
      ],
      "type": "VEC2"
    },
    {
      "bufferView": 0,
      "byteOffset": 8488680,
      "componentType": 5125,
      "count": 822,
      "type": "SCALAR"
    }
  ],
  "asset": {
    "extras": {
      "author": "Vincent Lagardère (https://sketchfab.com/v.lagardere)",
      "license": "CC-BY-NC-4.0 (http://creativecommons.org/licenses/by-nc/4.0/)",
      "source": "https://sketchfab.com/3d-models/leccinum-scabrum-real-fungus-3d-scan-689311a6da6c410a85f640d4812aeb89",
      "title": "Leccinum scabrum - Real fungus 3D scan"
    },
    "generator": "Sketchfab-12.67.0",
    "version": "2.0"
  },
  "bufferViews": [
    {
      "buffer": 0,
      "byteLength": 8491968,
      "name": "floatBufferViews",
      "target": 34963
    },
    {
      "buffer": 0,
      "byteLength": 3148664,
      "byteOffset": 8491968,
      "byteStride": 8,
      "name": "floatBufferViews",
      "target": 34962
    },
    {
      "buffer": 0,
      "byteLength": 9445992,
      "byteOffset": 11640632,
      "byteStride": 12,
      "name": "floatBufferViews",
      "target": 34962
    },
    {
      "buffer": 0,
      "byteLength": 6297328,
      "byteOffset": 21086624,
      "byteStride": 16,
      "name": "floatBufferViews",
      "target": 34962
    }
  ],
  "buffers": [
    {
      "byteLength": 27383952,
      "uri": "scene.bin"
    }
  ],
  "images": [
    {
      "uri": "textures/material_0_baseColor.jpeg"
    },
    {
      "uri": "textures/material_0_normal.png"
    }
  ],
  "materials": [
    {
      "doubleSided": true,
      "name": "material_0",
      "normalTexture": {
        "index": 1,
        "scale": 0.8748019398311836
      },
      "pbrMetallicRoughness": {
        "baseColorTexture": {
          "index": 0
        },
        "metallicFactor": 0.0,
        "roughnessFactor": 0.25081278723941824
      }
    }
  ],
  "meshes": [
    {
      "name": "Object_0",
      "primitives": [
        {
          "attributes": {
            "NORMAL": 1,
            "POSITION": 0,
            "TANGENT": 2,
            "TEXCOORD_0": 3
          },
          "indices": 4,
          "material": 0,
          "mode": 4
        }
      ]
    },
    {
      "name": "Object_1",
      "primitives": [
        {
          "attributes": {
            "NORMAL": 6,
            "POSITION": 5,
            "TANGENT": 7,
            "TEXCOORD_0": 8
          },
          "indices": 9,
          "material": 0,
          "mode": 4
        }
      ]
    },
    {
      "name": "Object_2",
      "primitives": [
        {
          "attributes": {
            "NORMAL": 11,
            "POSITION": 10,
            "TANGENT": 12,
            "TEXCOORD_0": 13
          },
          "indices": 14,
          "material": 0,
          "mode": 4
        }
      ]
    },
    {
      "name": "Object_3",
      "primitives": [
        {
          "attributes": {
            "NORMAL": 16,
            "POSITION": 15,
            "TANGENT": 17,
            "TEXCOORD_0": 18
          },
          "indices": 19,
          "material": 0,
          "mode": 4
        }
      ]
    },
    {
      "name": "Object_4",
      "primitives": [
        {
          "attributes": {
            "NORMAL": 21,
            "POSITION": 20,
            "TANGENT": 22,
            "TEXCOORD_0": 23
          },
          "indices": 24,
          "material": 0,
          "mode": 4
        }
      ]
    },
    {
      "name": "Object_5",
      "primitives": [
        {
          "attributes": {
            "NORMAL": 26,
            "POSITION": 25,
            "TANGENT": 27,
            "TEXCOORD_0": 28
          },
          "indices": 29,
          "material": 0,
          "mode": 4
        }
      ]
    },
    {
      "name": "Object_6",
      "primitives": [
        {
          "attributes": {
            "NORMAL": 31,
            "POSITION": 30,
            "TANGENT": 32,
            "TEXCOORD_0": 33
          },
          "indices": 34,
          "material": 0,
          "mode": 4
        }
      ]
    }
  ],
  "nodes": [
    {
      "children": [
        1
      ],
      "matrix": [
        0.7169669270515442,
        -0.4152333140373229,
        -0.5599461793899537,
        0.0,
        -0.4837506115436554,
        0.28200501203537004,
        -0.8285279273986815,
        0.0,
        0.5019400119781494,
        0.8649014234542847,
        0.0013188879238443508,
        0.0,
        2.9320600032806396,
        8.725958824157713,
        10.83544158935547,
        1.0
      ],
      "name": "Sketchfab_model"
    },
    {
      "children": [
        2,
        3,
        4,
        5,
        6,
        7,
        8
      ],
      "name": "Leccinum scabrum.obj.cleaner.materialmerger.gles"
    },
    {
      "mesh": 0,
      "name": "Object_2"
    },
    {
      "mesh": 1,
      "name": "Object_3"
    },
    {
      "mesh": 2,
      "name": "Object_4"
    },
    {
      "mesh": 3,
      "name": "Object_5"
    },
    {
      "mesh": 4,
      "name": "Object_6"
    },
    {
      "mesh": 5,
      "name": "Object_7"
    },
    {
      "mesh": 6,
      "name": "Object_8"
    }
  ],
  "samplers": [
    {
      "magFilter": 9729,
      "minFilter": 9987,
      "wrapS": 10497,
      "wrapT": 10497
    }
  ],
  "scene": 0,
  "scenes": [
    {
      "name": "Sketchfab_Scene",
      "nodes": [
        0
      ]
    }
  ],
  "textures": [
    {
      "sampler": 0,
      "source": 0
    },
    {
      "sampler": 0,
      "source": 1
    }
  ]
}
