{
  "accessors": [
    {
      "bufferView": 2,
      "componentType": 5126,
      "count": 65532,
      "max": [
        43.310585021972656,
        79.20816802978516,
        60.87614440917969
      ],
      "min": [
        -44.88941955566406,
        -62.39183807373047,
        -104.48689270019531
      ],
      "type": "VEC3"
    },
    {
      "bufferView": 2,
      "byteOffset": 786384,
      "componentType": 5126,
      "count": 65532,
      "max": [
        1.0,
        1.0,
        1.0
      ],
      "min": [
        -1.0,
        -1.0,
        -1.0
      ],
      "type": "VEC3"
    },
    {
      "bufferView": 3,
      "componentType": 5126,
      "count": 65532,
      "max": [
        0.9999672174453735,
        1.0,
        0.9999911189079285,
        1.0
      ],
      "min": [
        -0.9999924302101135,
        -1.0,
        -0.9999951124191284,
        -1.0
      ],
      "type": "VEC4"
    },
    {
      "bufferView": 1,
      "componentType": 5126,
      "count": 65532,
      "max": [
        0.9954749941825867,
        0.9575889706611633
      ],
      "min": [
        0.0007440000190399587,
        0.0007440000190399587
      ],
      "type": "VEC2"
    },
    {
      "bufferView": 0,
      "componentType": 5125,
      "count": 217230,
      "type": "SCALAR"
    },
    {
      "bufferView": 2,
      "byteOffset": 1572768,
      "componentType": 5126,
      "count": 65532,
      "max": [
        44.51058578491211,
        79.49895477294922,
        65.10520935058594
      ],
      "min": [
        -44.885032653808594,
        -61.45152282714844,
        -104.28042602539063
      ],
      "type": "VEC3"
    },
    {
      "bufferView": 2,
      "byteOffset": 2359152,
      "componentType": 5126,
      "count": 65532,
      "max": [
        1.0,
        1.0,
        1.0
      ],
      "min": [
        -1.0,
        -1.0,
        -1.0
      ],
      "type": "VEC3"
    },
    {
      "bufferView": 3,
      "byteOffset": 1048512,
      "componentType": 5126,
      "count": 65532,
      "max": [
        0.9998965263366699,
        0.9999765157699585,
        0.99997878074646,
        1.0
      ],
      "min": [
        -0.999998927116394,
        -0.9999879002571106,
        -0.9999953508377075,
        -1.0
      ],
      "type": "VEC4"
    },
    {
      "bufferView": 1,
      "byteOffset": 524256,
      "componentType": 5126,
      "count": 65532,
      "max": [
        0.9984999895095825,
        0.962797999382019
      ],
      "min": [
        0.003719999920576811,
        0.0007719999994151294
      ],
      "type": "VEC2"
    },
    {
      "bufferView": 0,
      "byteOffset": 868920,
      "componentType": 5125,
      "count": 287301,
      "type": "SCALAR"
    },
    {
      "bufferView": 2,
      "byteOffset": 3145536,
      "componentType": 5126,
      "count": 65532,
      "max": [
        62.22016525268555,
        84.99244689941406,
        60.00937271118164
      ],
      "min": [
        -42.96437454223633,
        -63.50924301147461,
        -88.64987182617188
      ],
      "type": "VEC3"
    },
    {
      "bufferView": 2,
      "byteOffset": 3931920,
      "componentType": 5126,
      "count": 65532,
      "max": [
        1.0,
        1.0,
        1.0
      ],
      "min": [
        -1.0,
        -1.0,
        -1.0
      ],
      "type": "VEC3"
    },
    {
      "bufferView": 3,
      "byteOffset": 2097024,
      "componentType": 5126,
      "count": 65532,
      "max": [
        0.9998058676719666,
        1.0,
        0.9999236464500427,
        1.0
      ],
      "min": [
        -0.999915361404419,
        -1.0,
        -0.9998607039451599,
        1.0
      ],
      "type": "VEC4"
    },
    {
      "bufferView": 1,
      "byteOffset": 1048512,
      "componentType": 5126,
      "count": 65532,
      "max": [
        0.9978579878807068,
        0.9992560148239136
      ],
      "min": [
        0.027529999613761902,
        0.0007570000016130507
      ],
      "type": "VEC2"
    },
    {
      "bufferView": 0,
      "byteOffset": 2018124,
      "componentType": 5125,
      "count": 354507,
      "type": "SCALAR"
    },
    {
      "bufferView": 2,
      "byteOffset": 4718304,
      "componentType": 5126,
      "count": 65532,
      "max": [
        24.110584259033203,
        54.30816650390625,
        72.73933410644531
      ],
      "min": [
        -37.97256851196289,
        -61.504947662353516,
        -32.44728088378906
      ],
      "type": "VEC3"
    },
    {
      "bufferView": 2,
      "byteOffset": 5504688,
      "componentType": 5126,
      "count": 65532,
      "max": [
        1.0,
        0.9999859929084778,
        0.9999399781227112
      ],
      "min": [
        -1.0,
        -1.0,
        -0.9999999403953552
      ],
      "type": "VEC3"
    },
    {
      "bufferView": 3,
      "byteOffset": 3145536,
      "componentType": 5126,
      "count": 65532,
      "max": [
        0.9999687671661377,
        0.9983537793159485,
        0.9998667240142822,
        1.0
      ],
      "min": [
        -0.9998468160629272,
        -0.9999841451644897,
        -0.9999709129333496,
        1.0
      ],
      "type": "VEC4"
    },
    {
      "bufferView": 1,
      "byteOffset": 1572768,
      "componentType": 5126,
      "count": 65532,
      "max": [
        0.8950690031051636,
        0.9992560148239136
      ],
      "min": [
        0.359811007976532,
        0.518284022808075
      ],
      "type": "VEC2"
    },
    {
      "bufferView": 0,
      "byteOffset": 3436152,
      "componentType": 5125,
      "count": 362463,
      "type": "SCALAR"
    },
    {
      "bufferView": 2,
      "byteOffset": 6291072,
      "componentType": 5126,
      "count": 65532,
      "max": [
        62.00828552246094,
        82.55606079101563,
        72.69090270996094
      ],
      "min": [
        -25.459400177001953,
        -54.55776596069336,
        -68.18780517578125
      ],
      "type": "VEC3"
    },
    {
      "bufferView": 2,
      "byteOffset": 7077456,
      "componentType": 5126,
      "count": 65532,
      "max": [
        1.0,
        0.9999927282333374,
        0.9999704360961914
      ],
      "min": [
        -0.9999901056289673,
        -0.999960720539093,
        -1.0
      ],
      "type": "VEC3"
    },
    {
      "bufferView": 3,
      "byteOffset": 4194048,
      "componentType": 5126,
      "count": 65532,
      "max": [
        0.9944480061531067,
        0.9998693466186523,
        0.9999526739120483,
        1.0
      ],
      "min": [
        -0.9998587369918823,
        -0.9963725805282593,
        -0.9999988079071045,
        -1.0
      ],
      "type": "VEC4"
    },
    {
      "bufferView": 1,
      "byteOffset": 2097024,
      "componentType": 5126,
      "count": 65532,
      "max": [
        0.8943039774894714,
        0.9992560148239136
      ],
      "min": [
        0.0007440000190399587,
        0.754833996295929
      ],
      "type": "VEC2"
    },
    {
      "bufferView": 0,
      "byteOffset": 4886004,
      "componentType": 5125,
      "count": 355248,
      "type": "SCALAR"
    },
    {
      "bufferView": 2,
      "byteOffset": 7863840,
      "componentType": 5126,
      "count": 65532,
      "max": [
        62.70347213745117,
        84.61229705810547,
        71.00634002685547
      ],
      "min": [
        -35.695919036865234,
        -62.723228454589844,
        -22.922889709472656
      ],
      "type": "VEC3"
    },
    {
      "bufferView": 2,
      "byteOffset": 8650224,
      "componentType": 5126,
      "count": 65532,
      "max": [
        1.0,
        0.9999995231628418,
        1.0
      ],
      "min": [
        -1.0,
        -0.9999987483024597,
        -0.9998602271080017
      ],
      "type": "VEC3"
    },
    {
      "bufferView": 3,
      "byteOffset": 5242560,
      "componentType": 5126,
      "count": 65532,
      "max": [
        1.0,
        0.9999985098838806,
        0.9999082088470459,
        1.0
      ],
      "min": [
        -0.9999241828918457,
        -0.9979673624038696,
        -0.9999558329582214,
        1.0
      ],
      "type": "VEC4"
    },
    {
      "bufferView": 1,
      "byteOffset": 2621280,
      "componentType": 5126,
      "count": 65532,
      "max": [
        0.28196901082992554,
        0.9946479797363281
      ],
      "min": [
        0.014832000248134136,
        0.42652300000190735
      ],
      "type": "VEC2"
    },
    {
      "bufferView": 0,
      "byteOffset": 6306996,
      "componentType": 5125,
      "count": 354711,
      "type": "SCALAR"
    },
    {
      "bufferView": 2,
      "byteOffset": 9436608,
      "componentType": 5126,
      "count": 65532,
      "max": [
        9.842552185058594,
        30.012096405029297,
        56.21210479736328
      ],
      "min": [
        -37.97531509399414,
        -58.82391357421875,
        -87.13020324707031
      ],
      "type": "VEC3"
    },
    {
      "bufferView": 2,
      "byteOffset": 10222992,
      "componentType": 5126,
      "count": 65532,
      "max": [
        0.9999999403953552,
        0.9999999403953552,
        1.0
      ],
      "min": [
        -1.0,
        -1.0,
        -0.9999999403953552
      ],
      "type": "VEC3"
    },
    {
      "bufferView": 3,
      "byteOffset": 6291072,
      "componentType": 5126,
      "count": 65532,
      "max": [
        0.9998621344566345,
        0.999901533126831,
        0.9999688863754272,
        1.0
      ],
      "min": [
        -0.9999235272407532,
        -0.9999992847442627,
        -0.9999988079071045,
        1.0
      ],
      "type": "VEC4"
    },
    {
      "bufferView": 1,
      "byteOffset": 3145536,
      "componentType": 5126,
      "count": 65532,
      "max": [
        0.9528340101242065,
        0.9992560148239136
      ],
      "min": [
        0.024553999304771423,
        0.26860401034355164
      ],
      "type": "VEC2"
    },
    {
      "bufferView": 0,
      "byteOffset": 7725840,
      "componentType": 5125,
      "count": 343011,
      "type": "SCALAR"
    },
    {
      "bufferView": 2,
      "byteOffset": 11009376,
      "componentType": 5126,
      "count": 65532,
      "max": [
        46.657135009765625,
        74.28218078613281,
        63.3118782043457
      ],
      "min": [
        -36.489418029785156,
        -58.49183654785156,
        -56.239192962646484
      ],
      "type": "VEC3"
    },
    {
      "bufferView": 2,
      "byteOffset": 11795760,
      "componentType": 5126,
      "count": 65532,
      "max": [
        1.0,
        1.0,
        1.0
      ],
      "min": [
        -1.0,
        -1.0,
        -1.0
      ],
      "type": "VEC3"
    },
    {
      "bufferView": 3,
      "byteOffset": 7339584,
      "componentType": 5126,
      "count": 65532,
      "max": [
        0.999975323677063,
        0.9999929070472717,
        0.9999995231628418,
        1.0
      ],
      "min": [
        -0.9998075366020203,
        -0.9998893141746521,
        -0.9997714161872864,
        1.0
      ],
      "type": "VEC4"
    },
    {
      "bufferView": 1,
      "byteOffset": 3669792,
      "componentType": 5126,
      "count": 65532,
      "max": [
        0.9533370137214661,
        0.8485379815101624
      ],
      "min": [
        0.023065000772476196,
        0.006409999914467335
      ],
      "type": "VEC2"
    },
    {
      "bufferView": 0,
      "byteOffset": 9097884,
      "componentType": 5125,
      "count": 349719,
      "type": "SCALAR"
    },
    {
      "bufferView": 2,
      "byteOffset": 12582144,
      "componentType": 5126,
      "count": 65532,
      "max": [
        43.04808807373047,
        75.85528564453125,
        72.5761489868164
      ],
      "min": [
        -39.249305725097656,
        -61.778472900390625,
        -99.43186950683594
      ],
      "type": "VEC3"
    },
    {
      "bufferView": 2,
      "byteOffset": 13368528,
      "componentType": 5126,
      "count": 65532,
      "max": [
        1.0,
        1.0,
        1.0
      ],
      "min": [
        -1.0,
        -1.0,
        -1.0
      ],
      "type": "VEC3"
    },
    {
      "bufferView": 3,
      "byteOffset": 8388096,
      "componentType": 5126,
      "count": 65532,
      "max": [
        0.9999691247940063,
        0.9999887347221375,
        0.9999983310699463,
        1.0
      ],
      "min": [
        -1.0,
        -0.9999999403953552,
        -0.9999603033065796,
        1.0
      ],
      "type": "VEC4"
    },
    {
      "bufferView": 1,
      "byteOffset": 4194048,
      "componentType": 5126,
      "count": 65532,
      "max": [
        0.9508060216903687,
        0.9501489996910095
      ],
      "min": [
        0.04389899969100952,
        0.03855700045824051
      ],
      "type": "VEC2"
    },
    {
      "bufferView": 0,
      "byteOffset": 10496760,
      "componentType": 5125,
      "count": 349836,
      "type": "SCALAR"
    },
    {
      "bufferView": 2,
      "byteOffset": 14154912,
      "componentType": 5126,
      "count": 65532,
      "max": [
        61.6105842590332,
        83.4794921875,
        47.688079833984375
      ],
      "min": [
        -43.39393997192383,
        -59.99183654785156,
        -102.26029205322266
      ],
      "type": "VEC3"
    },
    {
      "bufferView": 2,
      "byteOffset": 14941296,
      "componentType": 5126,
      "count": 65532,
      "max": [
        1.0,
        1.0,
        1.0
      ],
      "min": [
        -1.0,
        -1.0,
        -1.0
      ],
      "type": "VEC3"
    },
    {
      "bufferView": 3,
      "byteOffset": 9436608,
      "componentType": 5126,
      "count": 65532,
      "max": [
        0.9999961256980896,
        0.999990701675415,
        0.9999989867210388,
        1.0
      ],
      "min": [
        -0.9999464154243469,
        -1.0,
        -0.9999236464500427,
        -1.0
      ],
      "type": "VEC4"
    },
    {
      "bufferView": 1,
      "byteOffset": 4718304,
      "componentType": 5126,
      "count": 65532,
      "max": [
        0.9870309829711914,
        0.8668149709701538
      ],
      "min": [
        0.04761900007724762,
        0.0012199999764561653
      ],
      "type": "VEC2"
    },
    {
      "bufferView": 0,
      "byteOffset": 11896104,
      "componentType": 5125,
      "count": 330255,
      "type": "SCALAR"
    },
    {
      "bufferView": 2,
      "byteOffset": 15727680,
      "componentType": 5126,
      "count": 65532,
      "max": [
        45.12010955810547,
        79.96895599365234,
        50.30100631713867
      ],
      "min": [
        -47.223663330078125,
        -63.516902923583984,
        -104.28042602539063
      ],
      "type": "VEC3"
    },
    {
      "bufferView": 2,
      "byteOffset": 16514064,
      "componentType": 5126,
      "count": 65532,
      "max": [
        1.0,
        1.0,
        1.0
      ],
      "min": [
        -1.0,
        -1.0,
        -1.0
      ],
      "type": "VEC3"
    },
    {
      "bufferView": 3,
      "byteOffset": 10485120,
      "componentType": 5126,
      "count": 65532,
      "max": [
        0.9999948143959045,
        0.9999887347221375,
        0.9999926090240479,
        1.0
      ],
      "min": [
        -0.9999667406082153,
        -0.9999808669090271,
        -0.9999992847442627,
        1.0
      ],
      "type": "VEC4"
    },
    {
      "bufferView": 1,
      "byteOffset": 5242560,
      "componentType": 5126,
      "count": 65532,
      "max": [
        0.9775819778442383,
        0.950892984867096
      ],
      "min": [
        0.0014880000380799174,
        0.0007929999846965075
      ],
      "type": "VEC2"
    },
    {
      "bufferView": 0,
      "byteOffset": 13217124,
      "componentType": 5125,
      "count": 318027,
      "type": "SCALAR"
    },
    {
      "bufferView": 2,
      "byteOffset": 17300448,
      "componentType": 5126,
      "count": 22655,
      "max": [
        42.7105827331543,
        79.87957763671875,
        50.30100631713867
      ],
      "min": [
        -47.527809143066406,
        -62.93868637084961,
        -87.32386016845703
      ],
      "type": "VEC3"
    },
    {
      "bufferView": 2,
      "byteOffset": 17572308,
      "componentType": 5126,
      "count": 22655,
      "max": [
        1.0,
        1.0,
        1.0
      ],
      "min": [
        -1.0,
        -1.0,
        -1.0
      ],
      "type": "VEC3"
    },
    {
      "bufferView": 3,
      "byteOffset": 11533632,
      "componentType": 5126,
      "count": 22655,
      "max": [
        0.9998549818992615,
        0.9999332427978516,
        0.9999721050262451,
        1.0
      ],
      "min": [
        -0.9999996423721313,
        -0.9999844431877136,
        -0.9999889135360718,
        1.0
      ],
      "type": "VEC4"
    },
    {
      "bufferView": 1,
      "byteOffset": 5766816,
      "componentType": 5126,
      "count": 22655,
      "max": [
        0.9983950257301331,
        0.9992560148239136
      ],
      "min": [
        0.007439999841153622,
        0.0008430000161752105
      ],
      "type": "VEC2"
    },
    {
      "bufferView": 0,
      "byteOffset": 14489232,
      "componentType": 5125,
      "count": 105258,
      "type": "SCALAR"
    }
  ],
  "asset": {
    "extras": {
      "author": "Vincent Lagardère (https://sketchfab.com/v.lagardere)",
      "license": "CC-BY-NC-ND-4.0 (http://creativecommons.org/licenses/by-nc-nd/4.0/)",
      "source": "https://sketchfab.com/3d-models/ischnoderma-benzoinum-real-3d-fungi-b33f0e5ed2ba45d9add26ac7e891f3e3",
      "title": "Ischnoderma benzoinum - Real 3D fungi"
    },
    "generator": "Sketchfab-12.67.0",
    "version": "2.0"
  },
  "bufferViews": [
    {
      "buffer": 0,
      "byteLength": 14910264,
      "name": "floatBufferViews",
      "target": 34963
    },
    {
      "buffer": 0,
      "byteLength": 5948056,
      "byteOffset": 14910264,
      "byteStride": 8,
      "name": "floatBufferViews",
      "target": 34962
    },
    {
      "buffer": 0,
      "byteLength": 17844168,
      "byteOffset": 20858320,
      "byteStride": 12,
      "name": "floatBufferViews",
      "target": 34962
    },
    {
      "buffer": 0,
      "byteLength": 11896112,
      "byteOffset": 38702488,
      "byteStride": 16,
      "name": "floatBufferViews",
      "target": 34962
    }
  ],
  "buffers": [
    {
      "byteLength": 50598600,
      "uri": "scene.bin"
    }
  ],
  "extensionsRequired": [
    "KHR_materials_pbrSpecularGlossiness"
  ],
  "extensionsUsed": [
    "KHR_materials_pbrSpecularGlossiness"
  ],
  "images": [
    {
      "uri": "textures/material_0_diffuse.jpeg"
    },
    {
      "uri": "textures/material_0_normal.png"
    }
  ],
  "materials": [
    {
      "doubleSided": true,
      "extensions": {
        "KHR_materials_pbrSpecularGlossiness": {
          "diffuseFactor": [
            1.0,
            1.0,
            1.0,
            1.0
          ],
          "diffuseTexture": {
            "index": 0
          },
          "glossinessFactor": 0.5623413251903491,
          "specularFactor": [
            0.0,
            0.0,
            0.0
          ]
        }
      },
      "name": "material_0",
      "normalTexture": {
        "index": 1
      }
    }
  ],
  "meshes": [
    {
      "name": "Object_0",
      "primitives": [
        {
          "attributes": {
            "NORMAL": 1,
            "POSITION": 0,
            "TANGENT": 2,
            "TEXCOORD_0": 3
          },
          "indices": 4,
          "material": 0,
          "mode": 4
        }
      ]
    },
    {
      "name": "Object_1",
      "primitives": [
        {
          "attributes": {
            "NORMAL": 6,
            "POSITION": 5,
            "TANGENT": 7,
            "TEXCOORD_0": 8
          },
          "indices": 9,
          "material": 0,
          "mode": 4
        }
      ]
    },
    {
      "name": "Object_2",
      "primitives": [
        {
          "attributes": {
            "NORMAL": 11,
            "POSITION": 10,
            "TANGENT": 12,
            "TEXCOORD_0": 13
          },
          "indices": 14,
          "material": 0,
          "mode": 4
        }
      ]
    },
    {
      "name": "Object_3",
      "primitives": [
        {
          "attributes": {
            "NORMAL": 16,
            "POSITION": 15,
            "TANGENT": 17,
            "TEXCOORD_0": 18
          },
          "indices": 19,
          "material": 0,
          "mode": 4
        }
      ]
    },
    {
      "name": "Object_4",
      "primitives": [
        {
          "attributes": {
            "NORMAL": 21,
            "POSITION": 20,
            "TANGENT": 22,
            "TEXCOORD_0": 23
          },
          "indices": 24,
          "material": 0,
          "mode": 4
        }
      ]
    },
    {
      "name": "Object_5",
      "primitives": [
        {
          "attributes": {
            "NORMAL": 26,
            "POSITION": 25,
            "TANGENT": 27,
            "TEXCOORD_0": 28
          },
          "indices": 29,
          "material": 0,
          "mode": 4
        }
      ]
    },
    {
      "name": "Object_6",
      "primitives": [
        {
          "attributes": {
            "NORMAL": 31,
            "POSITION": 30,
            "TANGENT": 32,
            "TEXCOORD_0": 33
          },
          "indices": 34,
          "material": 0,
          "mode": 4
        }
      ]
    },
    {
      "name": "Object_7",
      "primitives": [
        {
          "attributes": {
            "NORMAL": 36,
            "POSITION": 35,
            "TANGENT": 37,
            "TEXCOORD_0": 38
          },
          "indices": 39,
          "material": 0,
          "mode": 4
        }
      ]
    },
    {
      "name": "Object_8",
      "primitives": [
        {
          "attributes": {
            "NORMAL": 41,
            "POSITION": 40,
            "TANGENT": 42,
            "TEXCOORD_0": 43
          },
          "indices": 44,
          "material": 0,
          "mode": 4
        }
      ]
    },
    {
      "name": "Object_9",
      "primitives": [
        {
          "attributes": {
            "NORMAL": 46,
            "POSITION": 45,
            "TANGENT": 47,
            "TEXCOORD_0": 48
          },
          "indices": 49,
          "material": 0,
          "mode": 4
        }
      ]
    },
    {
      "name": "Object_10",
      "primitives": [
        {
          "attributes": {
            "NORMAL": 51,
            "POSITION": 50,
            "TANGENT": 52,
            "TEXCOORD_0": 53
          },
          "indices": 54,
          "material": 0,
          "mode": 4
        }
      ]
    },
    {
      "name": "Object_11",
      "primitives": [
        {
          "attributes": {
            "NORMAL": 56,
            "POSITION": 55,
            "TANGENT": 57,
            "TEXCOORD_0": 58
          },
          "indices": 59,
          "material": 0,
          "mode": 4
        }
      ]
    }
  ],
  "nodes": [
    {
      "children": [
        1
      ],
      "matrix": [
        -0.45812469720840454,
        0.8376026153564454,
        -0.29756280779838545,
        0.0,
        -0.6246731281280518,
        -0.5415323972702025,
        -0.5626065135002137,
        0.0,
        -0.6323806047439575,
        -0.0718644484877588,
        0.7713172435760498,
        0.0,
        7.733407497406006,
        -17.555324554443363,
        9.804963111877438,
        1.0
      ],
      "name": "Sketchfab_model"
    },
    {
      "children": [
        2,
        3,
        4,
        5,
        6,
        7,
        8,
        9,
        10,
        11,
        12,
        13
      ],
      "name": "benjoin.obj.cleaner.materialmerger.gles"
    },
    {
      "mesh": 0,
      "name": "Object_2"
    },
    {
      "mesh": 1,
      "name": "Object_3"
    },
    {
      "mesh": 2,
      "name": "Object_4"
    },
    {
      "mesh": 3,
      "name": "Object_5"
    },
    {
      "mesh": 4,
      "name": "Object_6"
    },
    {
      "mesh": 5,
      "name": "Object_7"
    },
    {
      "mesh": 6,
      "name": "Object_8"
    },
    {
      "mesh": 7,
      "name": "Object_9"
    },
    {
      "mesh": 8,
      "name": "Object_10"
    },
    {
      "mesh": 9,
      "name": "Object_11"
    },
    {
      "mesh": 10,
      "name": "Object_12"
    },
    {
      "mesh": 11,
      "name": "Object_13"
    }
  ],
  "samplers": [
    {
      "magFilter": 9729,
      "minFilter": 9987,
      "wrapS": 10497,
      "wrapT": 10497
    }
  ],
  "scene": 0,
  "scenes": [
    {
      "name": "Sketchfab_Scene",
      "nodes": [
        0
      ]
    }
  ],
  "textures": [
    {
      "sampler": 0,
      "source": 0
    },
    {
      "sampler": 0,
      "source": 1
    }
  ]
}
